%TF.GenerationSoftware,KiCad,Pcbnew,(6.0.5)*%
%TF.CreationDate,2022-06-14T11:23:11-03:00*%
%TF.ProjectId,Retro Video Amp,52657472-6f20-4566-9964-656f20416d70,rev?*%
%TF.SameCoordinates,Original*%
%TF.FileFunction,Legend,Top*%
%TF.FilePolarity,Positive*%
%FSLAX46Y46*%
G04 Gerber Fmt 4.6, Leading zero omitted, Abs format (unit mm)*
G04 Created by KiCad (PCBNEW (6.0.5)) date 2022-06-14 11:23:11*
%MOMM*%
%LPD*%
G01*
G04 APERTURE LIST*
%ADD10C,0.150000*%
%ADD11C,0.120000*%
G04 APERTURE END LIST*
D10*
%TO.C,*%
%TO.C,U1*%
X31800895Y-24217380D02*
X31800895Y-25026904D01*
X31848514Y-25122142D01*
X31896133Y-25169761D01*
X31991371Y-25217380D01*
X32181847Y-25217380D01*
X32277085Y-25169761D01*
X32324704Y-25122142D01*
X32372323Y-25026904D01*
X32372323Y-24217380D01*
X33372323Y-25217380D02*
X32800895Y-25217380D01*
X33086609Y-25217380D02*
X33086609Y-24217380D01*
X32991371Y-24360238D01*
X32896133Y-24455476D01*
X32800895Y-24503095D01*
%TO.C,*%
D11*
%TO.C,C2*%
X35748748Y-17655000D02*
X36271252Y-17655000D01*
X35748748Y-16185000D02*
X36271252Y-16185000D01*
%TO.C,JP1*%
X33550000Y-28952500D02*
X36350000Y-28952500D01*
X37000000Y-29652500D02*
X37000000Y-30252500D01*
X36450000Y-28452500D02*
X35850000Y-28452500D01*
X36150000Y-28752500D02*
X36450000Y-28452500D01*
X36150000Y-28752500D02*
X35850000Y-28452500D01*
X32900000Y-30252500D02*
X32900000Y-29652500D01*
X36350000Y-30952500D02*
X33550000Y-30952500D01*
X32900000Y-30252500D02*
G75*
G03*
X33600000Y-30952500I700000J0D01*
G01*
X33600000Y-28952500D02*
G75*
G03*
X32900000Y-29652500I0J-700000D01*
G01*
X37000000Y-29652500D02*
G75*
G03*
X36300000Y-28952500I-699999J1D01*
G01*
X36300000Y-30952500D02*
G75*
G03*
X37000000Y-30252500I1J699999D01*
G01*
%TO.C,*%
X24995000Y-20620000D02*
X23095000Y-20620000D01*
X23095000Y-18720000D02*
X24995000Y-18720000D01*
X24995000Y-18720000D02*
X24995000Y-20620000D01*
X23095000Y-20620000D02*
X23095000Y-18720000D01*
X44870000Y-15750000D02*
X44870000Y-17650000D01*
X42970000Y-15750000D02*
X44870000Y-15750000D01*
X44870000Y-17650000D02*
X42970000Y-17650000D01*
X42970000Y-17650000D02*
X42970000Y-15750000D01*
X23080000Y-25650000D02*
X23080000Y-23750000D01*
X24980000Y-23750000D02*
X24980000Y-25650000D01*
X24980000Y-25650000D02*
X23080000Y-25650000D01*
X23080000Y-23750000D02*
X24980000Y-23750000D01*
%TO.C,R3*%
X40409864Y-28040000D02*
X39955736Y-28040000D01*
X40409864Y-26570000D02*
X39955736Y-26570000D01*
%TO.C,C4*%
X25951548Y-28040000D02*
X26474052Y-28040000D01*
X25951548Y-26570000D02*
X26474052Y-26570000D01*
%TO.C,*%
X42970000Y-29050000D02*
X44870000Y-29050000D01*
X44870000Y-30950000D02*
X42970000Y-30950000D01*
X44870000Y-29050000D02*
X44870000Y-30950000D01*
X42970000Y-30950000D02*
X42970000Y-29050000D01*
%TO.C,C1*%
X28542800Y-17240000D02*
X28542800Y-17740000D01*
X29032800Y-20245563D02*
X29032800Y-20110000D01*
X29032800Y-17854437D02*
X30097237Y-16790000D01*
X29032800Y-20245563D02*
X30097237Y-21310000D01*
X33552800Y-21310000D02*
X33552800Y-20110000D01*
X33552800Y-16790000D02*
X33552800Y-17990000D01*
X30097237Y-21310000D02*
X33552800Y-21310000D01*
X29032800Y-17854437D02*
X29032800Y-17990000D01*
X30097237Y-16790000D02*
X33552800Y-16790000D01*
X28292800Y-17490000D02*
X28792800Y-17490000D01*
%TO.C,U1*%
X34683700Y-22148800D02*
X30441900Y-22148800D01*
X30441900Y-27381200D02*
X34683700Y-27381200D01*
%TO.C,R2*%
X39955736Y-22960000D02*
X40409864Y-22960000D01*
X39955736Y-21490000D02*
X40409864Y-21490000D01*
%TO.C,*%
X42970000Y-28450000D02*
X42970000Y-26550000D01*
X42970000Y-26550000D02*
X44870000Y-26550000D01*
X44870000Y-28450000D02*
X42970000Y-28450000D01*
X44870000Y-26550000D02*
X44870000Y-28450000D01*
X42970000Y-20150000D02*
X42970000Y-18250000D01*
X44870000Y-20150000D02*
X42970000Y-20150000D01*
X44870000Y-18250000D02*
X44870000Y-20150000D01*
X42970000Y-18250000D02*
X44870000Y-18250000D01*
X24995000Y-15650000D02*
X24995000Y-17550000D01*
X24995000Y-17550000D02*
X23095000Y-17550000D01*
X23095000Y-17550000D02*
X23095000Y-15650000D01*
X23095000Y-15650000D02*
X24995000Y-15650000D01*
%TO.C,R1*%
X39955736Y-17880000D02*
X40409864Y-17880000D01*
X39955736Y-16410000D02*
X40409864Y-16410000D01*
%TO.C,C3*%
X25951548Y-22960000D02*
X26474052Y-22960000D01*
X25951548Y-21490000D02*
X26474052Y-21490000D01*
%TO.C,*%
X44870000Y-23650000D02*
X44870000Y-25550000D01*
X42970000Y-23650000D02*
X44870000Y-23650000D01*
X44870000Y-25550000D02*
X42970000Y-25550000D01*
X42970000Y-25550000D02*
X42970000Y-23650000D01*
X23095000Y-30770000D02*
X23095000Y-28870000D01*
X24995000Y-30770000D02*
X23095000Y-30770000D01*
X24995000Y-28870000D02*
X24995000Y-30770000D01*
X23095000Y-28870000D02*
X24995000Y-28870000D01*
X42970000Y-23050000D02*
X42970000Y-21150000D01*
X42970000Y-21150000D02*
X44870000Y-21150000D01*
X44870000Y-21150000D02*
X44870000Y-23050000D01*
X44870000Y-23050000D02*
X42970000Y-23050000D01*
%TD*%
M02*
