%TF.GenerationSoftware,KiCad,Pcbnew,(6.0.5)*%
%TF.CreationDate,2022-06-14T11:23:11-03:00*%
%TF.ProjectId,Retro Video Amp,52657472-6f20-4566-9964-656f20416d70,rev?*%
%TF.SameCoordinates,Original*%
%TF.FileFunction,Soldermask,Top*%
%TF.FilePolarity,Negative*%
%FSLAX46Y46*%
G04 Gerber Fmt 4.6, Leading zero omitted, Abs format (unit mm)*
G04 Created by KiCad (PCBNEW (6.0.5)) date 2022-06-14 11:23:11*
%MOMM*%
%LPD*%
G01*
G04 APERTURE LIST*
G04 Aperture macros list*
%AMRoundRect*
0 Rectangle with rounded corners*
0 $1 Rounding radius*
0 $2 $3 $4 $5 $6 $7 $8 $9 X,Y pos of 4 corners*
0 Add a 4 corners polygon primitive as box body*
4,1,4,$2,$3,$4,$5,$6,$7,$8,$9,$2,$3,0*
0 Add four circle primitives for the rounded corners*
1,1,$1+$1,$2,$3*
1,1,$1+$1,$4,$5*
1,1,$1+$1,$6,$7*
1,1,$1+$1,$8,$9*
0 Add four rect primitives between the rounded corners*
20,1,$1+$1,$2,$3,$4,$5,0*
20,1,$1+$1,$4,$5,$6,$7,0*
20,1,$1+$1,$6,$7,$8,$9,0*
20,1,$1+$1,$8,$9,$2,$3,0*%
%AMFreePoly0*
4,1,22,0.550000,-0.750000,0.000000,-0.750000,0.000000,-0.745033,-0.079941,-0.743568,-0.215256,-0.701293,-0.333266,-0.622738,-0.424486,-0.514219,-0.481581,-0.384460,-0.499164,-0.250000,-0.500000,-0.250000,-0.500000,0.250000,-0.499164,0.250000,-0.499963,0.256109,-0.478152,0.396186,-0.417904,0.524511,-0.324060,0.630769,-0.204165,0.706417,-0.067858,0.745374,0.000000,0.744959,0.000000,0.750000,
0.550000,0.750000,0.550000,-0.750000,0.550000,-0.750000,$1*%
%AMFreePoly1*
4,1,20,0.000000,0.744959,0.073905,0.744508,0.209726,0.703889,0.328688,0.626782,0.421226,0.519385,0.479903,0.390333,0.500000,0.250000,0.500000,-0.250000,0.499851,-0.262216,0.476331,-0.402017,0.414519,-0.529596,0.319384,-0.634700,0.198574,-0.708877,0.061801,-0.746166,0.000000,-0.745033,0.000000,-0.750000,-0.550000,-0.750000,-0.550000,0.750000,0.000000,0.750000,0.000000,0.744959,
0.000000,0.744959,$1*%
G04 Aperture macros list end*
%ADD10C,0.125000*%
%ADD11RoundRect,0.250000X-0.250000X-0.475000X0.250000X-0.475000X0.250000X0.475000X-0.250000X0.475000X0*%
%ADD12FreePoly0,180.000000*%
%ADD13R,1.000000X1.500000*%
%ADD14FreePoly1,180.000000*%
%ADD15R,1.500000X1.500000*%
%ADD16RoundRect,0.250000X0.262500X0.450000X-0.262500X0.450000X-0.262500X-0.450000X0.262500X-0.450000X0*%
%ADD17RoundRect,0.250000X-1.050000X-0.550000X1.050000X-0.550000X1.050000X0.550000X-1.050000X0.550000X0*%
%ADD18R,1.981200X0.508000*%
%ADD19RoundRect,0.250000X-0.262500X-0.450000X0.262500X-0.450000X0.262500X0.450000X-0.262500X0.450000X0*%
G04 APERTURE END LIST*
D10*
X46258571Y-22628869D02*
X46282380Y-22652678D01*
X46306190Y-22724107D01*
X46306190Y-22771726D01*
X46282380Y-22843154D01*
X46234761Y-22890773D01*
X46187142Y-22914583D01*
X46091904Y-22938392D01*
X46020476Y-22938392D01*
X45925238Y-22914583D01*
X45877619Y-22890773D01*
X45830000Y-22843154D01*
X45806190Y-22771726D01*
X45806190Y-22724107D01*
X45830000Y-22652678D01*
X45853809Y-22628869D01*
X45806190Y-22486011D02*
X46306190Y-22319345D01*
X45806190Y-22152678D01*
X46044285Y-21819345D02*
X46068095Y-21747916D01*
X46091904Y-21724107D01*
X46139523Y-21700297D01*
X46210952Y-21700297D01*
X46258571Y-21724107D01*
X46282380Y-21747916D01*
X46306190Y-21795535D01*
X46306190Y-21986011D01*
X45806190Y-21986011D01*
X45806190Y-21819345D01*
X45830000Y-21771726D01*
X45853809Y-21747916D01*
X45901428Y-21724107D01*
X45949047Y-21724107D01*
X45996666Y-21747916D01*
X46020476Y-21771726D01*
X46044285Y-21819345D01*
X46044285Y-21986011D01*
X46282380Y-21509821D02*
X46306190Y-21438392D01*
X46306190Y-21319345D01*
X46282380Y-21271726D01*
X46258571Y-21247916D01*
X46210952Y-21224107D01*
X46163333Y-21224107D01*
X46115714Y-21247916D01*
X46091904Y-21271726D01*
X46068095Y-21319345D01*
X46044285Y-21414583D01*
X46020476Y-21462202D01*
X45996666Y-21486011D01*
X45949047Y-21509821D01*
X45901428Y-21509821D01*
X45853809Y-21486011D01*
X45830000Y-21462202D01*
X45806190Y-21414583D01*
X45806190Y-21295535D01*
X45830000Y-21224107D01*
X26182202Y-19380000D02*
X26134583Y-19356190D01*
X26063154Y-19356190D01*
X25991726Y-19380000D01*
X25944107Y-19427619D01*
X25920297Y-19475238D01*
X25896488Y-19570476D01*
X25896488Y-19641904D01*
X25920297Y-19737142D01*
X25944107Y-19784761D01*
X25991726Y-19832380D01*
X26063154Y-19856190D01*
X26110773Y-19856190D01*
X26182202Y-19832380D01*
X26206011Y-19808571D01*
X26206011Y-19641904D01*
X26110773Y-19641904D01*
X26420297Y-19856190D02*
X26420297Y-19356190D01*
X26706011Y-19856190D01*
X26706011Y-19356190D01*
X26944107Y-19856190D02*
X26944107Y-19356190D01*
X27063154Y-19356190D01*
X27134583Y-19380000D01*
X27182202Y-19427619D01*
X27206011Y-19475238D01*
X27229821Y-19570476D01*
X27229821Y-19641904D01*
X27206011Y-19737142D01*
X27182202Y-19784761D01*
X27134583Y-19832380D01*
X27063154Y-19856190D01*
X26944107Y-19856190D01*
X25758392Y-25096190D02*
X25520297Y-25096190D01*
X25520297Y-24596190D01*
X25925059Y-24596190D02*
X25925059Y-25000952D01*
X25948869Y-25048571D01*
X25972678Y-25072380D01*
X26020297Y-25096190D01*
X26115535Y-25096190D01*
X26163154Y-25072380D01*
X26186964Y-25048571D01*
X26210773Y-25000952D01*
X26210773Y-24596190D01*
X26448869Y-25096190D02*
X26448869Y-24596190D01*
X26615535Y-24953333D01*
X26782202Y-24596190D01*
X26782202Y-25096190D01*
X26996488Y-24953333D02*
X27234583Y-24953333D01*
X26948869Y-25096190D02*
X27115535Y-24596190D01*
X27282202Y-25096190D01*
X46306190Y-17288393D02*
X46306190Y-17526488D01*
X45806190Y-17526488D01*
X45806190Y-17121726D02*
X46210952Y-17121726D01*
X46258571Y-17097916D01*
X46282380Y-17074107D01*
X46306190Y-17026488D01*
X46306190Y-16931250D01*
X46282380Y-16883631D01*
X46258571Y-16859821D01*
X46210952Y-16836012D01*
X45806190Y-16836012D01*
X46306190Y-16597916D02*
X45806190Y-16597916D01*
X46163333Y-16431250D01*
X45806190Y-16264583D01*
X46306190Y-16264583D01*
X46163333Y-16050297D02*
X46163333Y-15812202D01*
X46306190Y-16097916D02*
X45806190Y-15931250D01*
X46306190Y-15764583D01*
X37821009Y-29857500D02*
X37773390Y-29833690D01*
X37701961Y-29833690D01*
X37630533Y-29857500D01*
X37582914Y-29905119D01*
X37559104Y-29952738D01*
X37535295Y-30047976D01*
X37535295Y-30119404D01*
X37559104Y-30214642D01*
X37582914Y-30262261D01*
X37630533Y-30309880D01*
X37701961Y-30333690D01*
X37749580Y-30333690D01*
X37821009Y-30309880D01*
X37844819Y-30286071D01*
X37844819Y-30119404D01*
X37749580Y-30119404D01*
X38035295Y-30190833D02*
X38273390Y-30190833D01*
X37987676Y-30333690D02*
X38154342Y-29833690D01*
X38321009Y-30333690D01*
X38487676Y-30333690D02*
X38487676Y-29833690D01*
X38725771Y-30333690D02*
X38725771Y-29833690D01*
X39011485Y-30333690D01*
X39011485Y-29833690D01*
X39773390Y-30524166D02*
X39749580Y-30500357D01*
X39701961Y-30428928D01*
X39678152Y-30381309D01*
X39654342Y-30309880D01*
X39630533Y-30190833D01*
X39630533Y-30095595D01*
X39654342Y-29976547D01*
X39678152Y-29905119D01*
X39701961Y-29857500D01*
X39749580Y-29786071D01*
X39773390Y-29762261D01*
X40059104Y-29833690D02*
X40106723Y-29833690D01*
X40154342Y-29857500D01*
X40178152Y-29881309D01*
X40201961Y-29928928D01*
X40225771Y-30024166D01*
X40225771Y-30143214D01*
X40201961Y-30238452D01*
X40178152Y-30286071D01*
X40154342Y-30309880D01*
X40106723Y-30333690D01*
X40059104Y-30333690D01*
X40011485Y-30309880D01*
X39987676Y-30286071D01*
X39963866Y-30238452D01*
X39940057Y-30143214D01*
X39940057Y-30024166D01*
X39963866Y-29928928D01*
X39987676Y-29881309D01*
X40011485Y-29857500D01*
X40059104Y-29833690D01*
X40797200Y-29809880D02*
X40368628Y-30452738D01*
X41178152Y-29833690D02*
X41082914Y-29833690D01*
X41035295Y-29857500D01*
X41011485Y-29881309D01*
X40963866Y-29952738D01*
X40940057Y-30047976D01*
X40940057Y-30238452D01*
X40963866Y-30286071D01*
X40987676Y-30309880D01*
X41035295Y-30333690D01*
X41130533Y-30333690D01*
X41178152Y-30309880D01*
X41201961Y-30286071D01*
X41225771Y-30238452D01*
X41225771Y-30119404D01*
X41201961Y-30071785D01*
X41178152Y-30047976D01*
X41130533Y-30024166D01*
X41035295Y-30024166D01*
X40987676Y-30047976D01*
X40963866Y-30071785D01*
X40940057Y-30119404D01*
X41392438Y-30524166D02*
X41416247Y-30500357D01*
X41463866Y-30428928D01*
X41487676Y-30381309D01*
X41511485Y-30309880D01*
X41535295Y-30190833D01*
X41535295Y-30095595D01*
X41511485Y-29976547D01*
X41487676Y-29905119D01*
X41463866Y-29857500D01*
X41416247Y-29786071D01*
X41392438Y-29762261D01*
X25920297Y-16555714D02*
X26301250Y-16555714D01*
X26110773Y-16746190D02*
X26110773Y-16365238D01*
X26777440Y-16246190D02*
X26539345Y-16246190D01*
X26515535Y-16484285D01*
X26539345Y-16460476D01*
X26586964Y-16436666D01*
X26706011Y-16436666D01*
X26753630Y-16460476D01*
X26777440Y-16484285D01*
X26801250Y-16531904D01*
X26801250Y-16650952D01*
X26777440Y-16698571D01*
X26753630Y-16722380D01*
X26706011Y-16746190D01*
X26586964Y-16746190D01*
X26539345Y-16722380D01*
X26515535Y-16698571D01*
X26967916Y-16412857D02*
X27086964Y-16746190D01*
X27206011Y-16412857D01*
X46258571Y-28600298D02*
X46282380Y-28624107D01*
X46306190Y-28695536D01*
X46306190Y-28743155D01*
X46282380Y-28814583D01*
X46234761Y-28862202D01*
X46187142Y-28886012D01*
X46091904Y-28909821D01*
X46020476Y-28909821D01*
X45925238Y-28886012D01*
X45877619Y-28862202D01*
X45830000Y-28814583D01*
X45806190Y-28743155D01*
X45806190Y-28695536D01*
X45830000Y-28624107D01*
X45853809Y-28600298D01*
X46306190Y-28386012D02*
X45806190Y-28386012D01*
X46044285Y-28386012D02*
X46044285Y-28100298D01*
X46306190Y-28100298D02*
X45806190Y-28100298D01*
X46306190Y-27576488D02*
X46068095Y-27743155D01*
X46306190Y-27862202D02*
X45806190Y-27862202D01*
X45806190Y-27671726D01*
X45830000Y-27624107D01*
X45853809Y-27600298D01*
X45901428Y-27576488D01*
X45972857Y-27576488D01*
X46020476Y-27600298D01*
X46044285Y-27624107D01*
X46068095Y-27671726D01*
X46068095Y-27862202D01*
X45806190Y-27266964D02*
X45806190Y-27171726D01*
X45830000Y-27124107D01*
X45877619Y-27076488D01*
X45972857Y-27052679D01*
X46139523Y-27052679D01*
X46234761Y-27076488D01*
X46282380Y-27124107D01*
X46306190Y-27171726D01*
X46306190Y-27266964D01*
X46282380Y-27314583D01*
X46234761Y-27362202D01*
X46139523Y-27386012D01*
X45972857Y-27386012D01*
X45877619Y-27362202D01*
X45830000Y-27314583D01*
X45806190Y-27266964D01*
X46306190Y-26838393D02*
X45806190Y-26838393D01*
X46163333Y-26671726D01*
X45806190Y-26505060D01*
X46306190Y-26505060D01*
X46163333Y-26290774D02*
X46163333Y-26052679D01*
X46306190Y-26338393D02*
X45806190Y-26171726D01*
X46306190Y-26005060D01*
X25806011Y-29958571D02*
X25782202Y-29982380D01*
X25710773Y-30006190D01*
X25663154Y-30006190D01*
X25591726Y-29982380D01*
X25544107Y-29934761D01*
X25520297Y-29887142D01*
X25496488Y-29791904D01*
X25496488Y-29720476D01*
X25520297Y-29625238D01*
X25544107Y-29577619D01*
X25591726Y-29530000D01*
X25663154Y-29506190D01*
X25710773Y-29506190D01*
X25782202Y-29530000D01*
X25806011Y-29553809D01*
X26020297Y-30006190D02*
X26020297Y-29506190D01*
X26020297Y-29744285D02*
X26306011Y-29744285D01*
X26306011Y-30006190D02*
X26306011Y-29506190D01*
X26829821Y-30006190D02*
X26663154Y-29768095D01*
X26544107Y-30006190D02*
X26544107Y-29506190D01*
X26734583Y-29506190D01*
X26782202Y-29530000D01*
X26806011Y-29553809D01*
X26829821Y-29601428D01*
X26829821Y-29672857D01*
X26806011Y-29720476D01*
X26782202Y-29744285D01*
X26734583Y-29768095D01*
X26544107Y-29768095D01*
X27139345Y-29506190D02*
X27234583Y-29506190D01*
X27282202Y-29530000D01*
X27329821Y-29577619D01*
X27353630Y-29672857D01*
X27353630Y-29839523D01*
X27329821Y-29934761D01*
X27282202Y-29982380D01*
X27234583Y-30006190D01*
X27139345Y-30006190D01*
X27091726Y-29982380D01*
X27044107Y-29934761D01*
X27020297Y-29839523D01*
X27020297Y-29672857D01*
X27044107Y-29577619D01*
X27091726Y-29530000D01*
X27139345Y-29506190D01*
X27567916Y-30006190D02*
X27567916Y-29506190D01*
X27734583Y-29863333D01*
X27901250Y-29506190D01*
X27901250Y-30006190D01*
X28115535Y-29863333D02*
X28353630Y-29863333D01*
X28067916Y-30006190D02*
X28234583Y-29506190D01*
X28401250Y-30006190D01*
D11*
%TO.C,C2*%
X35060000Y-16920000D03*
X36960000Y-16920000D03*
%TD*%
D12*
%TO.C,JP1*%
X36250000Y-29952500D03*
D13*
X34950000Y-29952500D03*
D14*
X33650000Y-29952500D03*
%TD*%
D15*
%TO.C,*%
X24045000Y-19670000D03*
%TD*%
%TO.C,*%
X43920000Y-16700000D03*
%TD*%
%TO.C,*%
X24030000Y-24700000D03*
%TD*%
D16*
%TO.C,R3*%
X41095300Y-27305000D03*
X39270300Y-27305000D03*
%TD*%
D11*
%TO.C,C4*%
X25262800Y-27305000D03*
X27162800Y-27305000D03*
%TD*%
D15*
%TO.C,*%
X43920000Y-30000000D03*
%TD*%
D17*
%TO.C,C1*%
X29492800Y-19050000D03*
X33092800Y-19050000D03*
%TD*%
D18*
%TO.C,U1*%
X30099000Y-22860000D03*
X30099000Y-24130000D03*
X30099000Y-25400000D03*
X30099000Y-26670000D03*
X35026600Y-26670000D03*
X35026600Y-25400000D03*
X35026600Y-24130000D03*
X35026600Y-22860000D03*
%TD*%
D19*
%TO.C,R2*%
X39270300Y-22225000D03*
X41095300Y-22225000D03*
%TD*%
D15*
%TO.C,*%
X43920000Y-27500000D03*
%TD*%
%TO.C,*%
X43920000Y-19200000D03*
%TD*%
%TO.C,*%
X24045000Y-16600000D03*
%TD*%
D19*
%TO.C,R1*%
X39270300Y-17145000D03*
X41095300Y-17145000D03*
%TD*%
D11*
%TO.C,C3*%
X25262800Y-22225000D03*
X27162800Y-22225000D03*
%TD*%
D15*
%TO.C,*%
X43920000Y-24600000D03*
%TD*%
%TO.C,*%
X24045000Y-29820000D03*
%TD*%
%TO.C,*%
X43920000Y-22100000D03*
%TD*%
M02*
