%TF.GenerationSoftware,KiCad,Pcbnew,(6.0.1)*%
%TF.CreationDate,2022-02-22T12:17:33-04:00*%
%TF.ProjectId,Retro Video Amp,52657472-6f20-4566-9964-656f20416d70,rev?*%
%TF.SameCoordinates,Original*%
%TF.FileFunction,Legend,Top*%
%TF.FilePolarity,Positive*%
%FSLAX46Y46*%
G04 Gerber Fmt 4.6, Leading zero omitted, Abs format (unit mm)*
G04 Created by KiCad (PCBNEW (6.0.1)) date 2022-02-22 12:17:33*
%MOMM*%
%LPD*%
G01*
G04 APERTURE LIST*
%ADD10C,0.150000*%
%ADD11C,0.120000*%
G04 APERTURE END LIST*
D10*
%TO.C,*%
%TO.C,U1*%
X31800895Y-24217380D02*
X31800895Y-25026904D01*
X31848514Y-25122142D01*
X31896133Y-25169761D01*
X31991371Y-25217380D01*
X32181847Y-25217380D01*
X32277085Y-25169761D01*
X32324704Y-25122142D01*
X32372323Y-25026904D01*
X32372323Y-24217380D01*
X33372323Y-25217380D02*
X32800895Y-25217380D01*
X33086609Y-25217380D02*
X33086609Y-24217380D01*
X32991371Y-24360238D01*
X32896133Y-24455476D01*
X32800895Y-24503095D01*
%TO.C,*%
D11*
%TO.C,C2*%
X35748748Y-17655000D02*
X36271252Y-17655000D01*
X35748748Y-16185000D02*
X36271252Y-16185000D01*
%TO.C,R5*%
X40409864Y-24030000D02*
X39955736Y-24030000D01*
X40409864Y-25500000D02*
X39955736Y-25500000D01*
%TO.C,JP1*%
X29892800Y-28845000D02*
X32692800Y-28845000D01*
X33342800Y-29545000D02*
X33342800Y-30145000D01*
X32792800Y-28345000D02*
X32192800Y-28345000D01*
X32492800Y-28645000D02*
X32792800Y-28345000D01*
X32492800Y-28645000D02*
X32192800Y-28345000D01*
X29242800Y-30145000D02*
X29242800Y-29545000D01*
X32692800Y-30845000D02*
X29892800Y-30845000D01*
X29242800Y-30145000D02*
G75*
G03*
X29942800Y-30845000I699999J-1D01*
G01*
X29942800Y-28845000D02*
G75*
G03*
X29242800Y-29545000I-1J-699999D01*
G01*
X33342800Y-29545000D02*
G75*
G03*
X32642800Y-28845000I-699999J1D01*
G01*
X32642800Y-30845000D02*
G75*
G03*
X33342800Y-30145000I1J699999D01*
G01*
%TO.C,R3*%
X40409864Y-28040000D02*
X39955736Y-28040000D01*
X40409864Y-26570000D02*
X39955736Y-26570000D01*
%TO.C,C4*%
X25951548Y-28040000D02*
X26474052Y-28040000D01*
X25951548Y-26570000D02*
X26474052Y-26570000D01*
%TO.C,C1*%
X28542800Y-17240000D02*
X28542800Y-17740000D01*
X29032800Y-20245563D02*
X29032800Y-20110000D01*
X29032800Y-17854437D02*
X30097237Y-16790000D01*
X29032800Y-20245563D02*
X30097237Y-21310000D01*
X33552800Y-21310000D02*
X33552800Y-20110000D01*
X33552800Y-16790000D02*
X33552800Y-17990000D01*
X30097237Y-21310000D02*
X33552800Y-21310000D01*
X29032800Y-17854437D02*
X29032800Y-17990000D01*
X30097237Y-16790000D02*
X33552800Y-16790000D01*
X28292800Y-17490000D02*
X28792800Y-17490000D01*
%TO.C,U1*%
X34683700Y-22148800D02*
X30441900Y-22148800D01*
X30441900Y-27381200D02*
X34683700Y-27381200D01*
%TO.C,R2*%
X39955736Y-22960000D02*
X40409864Y-22960000D01*
X39955736Y-21490000D02*
X40409864Y-21490000D01*
%TO.C,R1*%
X39955736Y-17880000D02*
X40409864Y-17880000D01*
X39955736Y-16410000D02*
X40409864Y-16410000D01*
%TO.C,C3*%
X25951548Y-22960000D02*
X26474052Y-22960000D01*
X25951548Y-21490000D02*
X26474052Y-21490000D01*
%TO.C,R4*%
X40409864Y-20420000D02*
X39955736Y-20420000D01*
X40409864Y-18950000D02*
X39955736Y-18950000D01*
%TO.C,R6*%
X40409864Y-30580000D02*
X39955736Y-30580000D01*
X40409864Y-29110000D02*
X39955736Y-29110000D01*
%TD*%
M02*
