%TF.GenerationSoftware,KiCad,Pcbnew,(6.0.1)*%
%TF.CreationDate,2022-02-22T12:17:33-04:00*%
%TF.ProjectId,Retro Video Amp,52657472-6f20-4566-9964-656f20416d70,rev?*%
%TF.SameCoordinates,Original*%
%TF.FileFunction,Legend,Bot*%
%TF.FilePolarity,Positive*%
%FSLAX46Y46*%
G04 Gerber Fmt 4.6, Leading zero omitted, Abs format (unit mm)*
G04 Created by KiCad (PCBNEW (6.0.1)) date 2022-02-22 12:17:33*
%MOMM*%
%LPD*%
G01*
G04 APERTURE LIST*
%ADD10C,0.025000*%
G04 APERTURE END LIST*
D10*
X42706607Y-21113428D02*
X42663750Y-21127714D01*
X42592321Y-21127714D01*
X42563750Y-21113428D01*
X42549464Y-21099142D01*
X42535178Y-21070571D01*
X42535178Y-21042000D01*
X42549464Y-21013428D01*
X42563750Y-20999142D01*
X42592321Y-20984857D01*
X42649464Y-20970571D01*
X42678035Y-20956285D01*
X42692321Y-20942000D01*
X42706607Y-20913428D01*
X42706607Y-20884857D01*
X42692321Y-20856285D01*
X42678035Y-20842000D01*
X42649464Y-20827714D01*
X42578035Y-20827714D01*
X42535178Y-20842000D01*
X42406607Y-21127714D02*
X42406607Y-20927714D01*
X42406607Y-20827714D02*
X42420892Y-20842000D01*
X42406607Y-20856285D01*
X42392321Y-20842000D01*
X42406607Y-20827714D01*
X42406607Y-20856285D01*
X42263750Y-21127714D02*
X42263750Y-20927714D01*
X42263750Y-20956285D02*
X42249464Y-20942000D01*
X42220892Y-20927714D01*
X42178035Y-20927714D01*
X42149464Y-20942000D01*
X42135178Y-20970571D01*
X42135178Y-21127714D01*
X42135178Y-20970571D02*
X42120892Y-20942000D01*
X42092321Y-20927714D01*
X42049464Y-20927714D01*
X42020892Y-20942000D01*
X42006607Y-20970571D01*
X42006607Y-21127714D01*
X41863750Y-20927714D02*
X41863750Y-21227714D01*
X41863750Y-20942000D02*
X41835178Y-20927714D01*
X41778035Y-20927714D01*
X41749464Y-20942000D01*
X41735178Y-20956285D01*
X41720892Y-20984857D01*
X41720892Y-21070571D01*
X41735178Y-21099142D01*
X41749464Y-21113428D01*
X41778035Y-21127714D01*
X41835178Y-21127714D01*
X41863750Y-21113428D01*
X41549464Y-21127714D02*
X41578035Y-21113428D01*
X41592321Y-21084857D01*
X41592321Y-20827714D01*
X41320892Y-21113428D02*
X41349464Y-21127714D01*
X41406607Y-21127714D01*
X41435178Y-21113428D01*
X41449464Y-21084857D01*
X41449464Y-20970571D01*
X41435178Y-20942000D01*
X41406607Y-20927714D01*
X41349464Y-20927714D01*
X41320892Y-20942000D01*
X41306607Y-20970571D01*
X41306607Y-20999142D01*
X41449464Y-21027714D01*
X40963750Y-21113428D02*
X40920892Y-21127714D01*
X40849464Y-21127714D01*
X40820892Y-21113428D01*
X40806607Y-21099142D01*
X40792321Y-21070571D01*
X40792321Y-21042000D01*
X40806607Y-21013428D01*
X40820892Y-20999142D01*
X40849464Y-20984857D01*
X40906607Y-20970571D01*
X40935178Y-20956285D01*
X40949464Y-20942000D01*
X40963750Y-20913428D01*
X40963750Y-20884857D01*
X40949464Y-20856285D01*
X40935178Y-20842000D01*
X40906607Y-20827714D01*
X40835178Y-20827714D01*
X40792321Y-20842000D01*
X40663750Y-21013428D02*
X40435178Y-21013428D01*
X40335178Y-20827714D02*
X40235178Y-21127714D01*
X40135178Y-20827714D01*
X40035178Y-21127714D02*
X40035178Y-20927714D01*
X40035178Y-20827714D02*
X40049464Y-20842000D01*
X40035178Y-20856285D01*
X40020892Y-20842000D01*
X40035178Y-20827714D01*
X40035178Y-20856285D01*
X39763750Y-21127714D02*
X39763750Y-20827714D01*
X39763750Y-21113428D02*
X39792321Y-21127714D01*
X39849464Y-21127714D01*
X39878035Y-21113428D01*
X39892321Y-21099142D01*
X39906607Y-21070571D01*
X39906607Y-20984857D01*
X39892321Y-20956285D01*
X39878035Y-20942000D01*
X39849464Y-20927714D01*
X39792321Y-20927714D01*
X39763750Y-20942000D01*
X39506607Y-21113428D02*
X39535178Y-21127714D01*
X39592321Y-21127714D01*
X39620892Y-21113428D01*
X39635178Y-21084857D01*
X39635178Y-20970571D01*
X39620892Y-20942000D01*
X39592321Y-20927714D01*
X39535178Y-20927714D01*
X39506607Y-20942000D01*
X39492321Y-20970571D01*
X39492321Y-20999142D01*
X39635178Y-21027714D01*
X39320892Y-21127714D02*
X39349464Y-21113428D01*
X39363750Y-21099142D01*
X39378035Y-21070571D01*
X39378035Y-20984857D01*
X39363750Y-20956285D01*
X39349464Y-20942000D01*
X39320892Y-20927714D01*
X39278035Y-20927714D01*
X39249464Y-20942000D01*
X39235178Y-20956285D01*
X39220892Y-20984857D01*
X39220892Y-21070571D01*
X39235178Y-21099142D01*
X39249464Y-21113428D01*
X39278035Y-21127714D01*
X39320892Y-21127714D01*
X38906607Y-20927714D02*
X38792321Y-20927714D01*
X38863750Y-21127714D02*
X38863750Y-20870571D01*
X38849464Y-20842000D01*
X38820892Y-20827714D01*
X38792321Y-20827714D01*
X38692321Y-21127714D02*
X38692321Y-20927714D01*
X38692321Y-20827714D02*
X38706607Y-20842000D01*
X38692321Y-20856285D01*
X38678035Y-20842000D01*
X38692321Y-20827714D01*
X38692321Y-20856285D01*
X38506607Y-21127714D02*
X38535178Y-21113428D01*
X38549464Y-21084857D01*
X38549464Y-20827714D01*
X38435178Y-20927714D02*
X38320892Y-20927714D01*
X38392321Y-20827714D02*
X38392321Y-21084857D01*
X38378035Y-21113428D01*
X38349464Y-21127714D01*
X38320892Y-21127714D01*
X38106607Y-21113428D02*
X38135178Y-21127714D01*
X38192321Y-21127714D01*
X38220892Y-21113428D01*
X38235178Y-21084857D01*
X38235178Y-20970571D01*
X38220892Y-20942000D01*
X38192321Y-20927714D01*
X38135178Y-20927714D01*
X38106607Y-20942000D01*
X38092321Y-20970571D01*
X38092321Y-20999142D01*
X38235178Y-21027714D01*
X37963750Y-21127714D02*
X37963750Y-20927714D01*
X37963750Y-20984857D02*
X37949464Y-20956285D01*
X37935178Y-20942000D01*
X37906607Y-20927714D01*
X37878035Y-20927714D01*
X37420892Y-21127714D02*
X37420892Y-20970571D01*
X37435178Y-20942000D01*
X37463750Y-20927714D01*
X37520892Y-20927714D01*
X37549464Y-20942000D01*
X37420892Y-21113428D02*
X37449464Y-21127714D01*
X37520892Y-21127714D01*
X37549464Y-21113428D01*
X37563750Y-21084857D01*
X37563750Y-21056285D01*
X37549464Y-21027714D01*
X37520892Y-21013428D01*
X37449464Y-21013428D01*
X37420892Y-20999142D01*
X37278035Y-21127714D02*
X37278035Y-20927714D01*
X37278035Y-20956285D02*
X37263750Y-20942000D01*
X37235178Y-20927714D01*
X37192321Y-20927714D01*
X37163750Y-20942000D01*
X37149464Y-20970571D01*
X37149464Y-21127714D01*
X37149464Y-20970571D02*
X37135178Y-20942000D01*
X37106607Y-20927714D01*
X37063750Y-20927714D01*
X37035178Y-20942000D01*
X37020892Y-20970571D01*
X37020892Y-21127714D01*
X36878035Y-20927714D02*
X36878035Y-21227714D01*
X36878035Y-20942000D02*
X36849464Y-20927714D01*
X36792321Y-20927714D01*
X36763750Y-20942000D01*
X36749464Y-20956285D01*
X36735178Y-20984857D01*
X36735178Y-21070571D01*
X36749464Y-21099142D01*
X36763750Y-21113428D01*
X36792321Y-21127714D01*
X36849464Y-21127714D01*
X36878035Y-21113428D01*
X36563750Y-21127714D02*
X36592321Y-21113428D01*
X36606607Y-21084857D01*
X36606607Y-20827714D01*
X36449464Y-21127714D02*
X36449464Y-20927714D01*
X36449464Y-20827714D02*
X36463750Y-20842000D01*
X36449464Y-20856285D01*
X36435178Y-20842000D01*
X36449464Y-20827714D01*
X36449464Y-20856285D01*
X36349464Y-20927714D02*
X36235178Y-20927714D01*
X36306607Y-21127714D02*
X36306607Y-20870571D01*
X36292321Y-20842000D01*
X36263750Y-20827714D01*
X36235178Y-20827714D01*
X36135178Y-21127714D02*
X36135178Y-20927714D01*
X36135178Y-20827714D02*
X36149464Y-20842000D01*
X36135178Y-20856285D01*
X36120892Y-20842000D01*
X36135178Y-20827714D01*
X36135178Y-20856285D01*
X35878035Y-21113428D02*
X35906607Y-21127714D01*
X35963750Y-21127714D01*
X35992321Y-21113428D01*
X36006607Y-21084857D01*
X36006607Y-20970571D01*
X35992321Y-20942000D01*
X35963750Y-20927714D01*
X35906607Y-20927714D01*
X35878035Y-20942000D01*
X35863750Y-20970571D01*
X35863750Y-20999142D01*
X36006607Y-21027714D01*
X35735178Y-21127714D02*
X35735178Y-20927714D01*
X35735178Y-20984857D02*
X35720892Y-20956285D01*
X35706607Y-20942000D01*
X35678035Y-20927714D01*
X35649464Y-20927714D01*
X35535178Y-21113428D02*
X35535178Y-21127714D01*
X35549464Y-21156285D01*
X35563750Y-21170571D01*
X35206607Y-20927714D02*
X35149464Y-21127714D01*
X35092321Y-20984857D01*
X35035178Y-21127714D01*
X34978035Y-20927714D01*
X34863750Y-21127714D02*
X34863750Y-20927714D01*
X34863750Y-20827714D02*
X34878035Y-20842000D01*
X34863750Y-20856285D01*
X34849464Y-20842000D01*
X34863750Y-20827714D01*
X34863750Y-20856285D01*
X34763750Y-20927714D02*
X34649464Y-20927714D01*
X34720892Y-20827714D02*
X34720892Y-21084857D01*
X34706607Y-21113428D01*
X34678035Y-21127714D01*
X34649464Y-21127714D01*
X34549464Y-21127714D02*
X34549464Y-20827714D01*
X34420892Y-21127714D02*
X34420892Y-20970571D01*
X34435178Y-20942000D01*
X34463750Y-20927714D01*
X34506607Y-20927714D01*
X34535178Y-20942000D01*
X34549464Y-20956285D01*
X33878035Y-21099142D02*
X33892321Y-21113428D01*
X33935178Y-21127714D01*
X33963750Y-21127714D01*
X34006607Y-21113428D01*
X34035178Y-21084857D01*
X34049464Y-21056285D01*
X34063750Y-20999142D01*
X34063750Y-20956285D01*
X34049464Y-20899142D01*
X34035178Y-20870571D01*
X34006607Y-20842000D01*
X33963750Y-20827714D01*
X33935178Y-20827714D01*
X33892321Y-20842000D01*
X33878035Y-20856285D01*
X33706607Y-21127714D02*
X33735178Y-21113428D01*
X33749464Y-21099142D01*
X33763750Y-21070571D01*
X33763750Y-20984857D01*
X33749464Y-20956285D01*
X33735178Y-20942000D01*
X33706607Y-20927714D01*
X33663750Y-20927714D01*
X33635178Y-20942000D01*
X33620892Y-20956285D01*
X33606607Y-20984857D01*
X33606607Y-21070571D01*
X33620892Y-21099142D01*
X33635178Y-21113428D01*
X33663750Y-21127714D01*
X33706607Y-21127714D01*
X33478035Y-21127714D02*
X33478035Y-20927714D01*
X33478035Y-20956285D02*
X33463750Y-20942000D01*
X33435178Y-20927714D01*
X33392321Y-20927714D01*
X33363750Y-20942000D01*
X33349464Y-20970571D01*
X33349464Y-21127714D01*
X33349464Y-20970571D02*
X33335178Y-20942000D01*
X33306607Y-20927714D01*
X33263750Y-20927714D01*
X33235178Y-20942000D01*
X33220892Y-20970571D01*
X33220892Y-21127714D01*
X33078035Y-20927714D02*
X33078035Y-21227714D01*
X33078035Y-20942000D02*
X33049464Y-20927714D01*
X32992321Y-20927714D01*
X32963750Y-20942000D01*
X32949464Y-20956285D01*
X32935178Y-20984857D01*
X32935178Y-21070571D01*
X32949464Y-21099142D01*
X32963750Y-21113428D01*
X32992321Y-21127714D01*
X33049464Y-21127714D01*
X33078035Y-21113428D01*
X32763750Y-21127714D02*
X32792321Y-21113428D01*
X32806607Y-21099142D01*
X32820892Y-21070571D01*
X32820892Y-20984857D01*
X32806607Y-20956285D01*
X32792321Y-20942000D01*
X32763750Y-20927714D01*
X32720892Y-20927714D01*
X32692321Y-20942000D01*
X32678035Y-20956285D01*
X32663750Y-20984857D01*
X32663750Y-21070571D01*
X32678035Y-21099142D01*
X32692321Y-21113428D01*
X32720892Y-21127714D01*
X32763750Y-21127714D01*
X32549464Y-21113428D02*
X32520892Y-21127714D01*
X32463750Y-21127714D01*
X32435178Y-21113428D01*
X32420892Y-21084857D01*
X32420892Y-21070571D01*
X32435178Y-21042000D01*
X32463750Y-21027714D01*
X32506607Y-21027714D01*
X32535178Y-21013428D01*
X32549464Y-20984857D01*
X32549464Y-20970571D01*
X32535178Y-20942000D01*
X32506607Y-20927714D01*
X32463750Y-20927714D01*
X32435178Y-20942000D01*
X32335178Y-20927714D02*
X32220892Y-20927714D01*
X32292321Y-20827714D02*
X32292321Y-21084857D01*
X32278035Y-21113428D01*
X32249464Y-21127714D01*
X32220892Y-21127714D01*
X32120892Y-21127714D02*
X32120892Y-20927714D01*
X32120892Y-20827714D02*
X32135178Y-20842000D01*
X32120892Y-20856285D01*
X32106607Y-20842000D01*
X32120892Y-20827714D01*
X32120892Y-20856285D01*
X32006607Y-20927714D02*
X31935178Y-21127714D01*
X31863750Y-20927714D01*
X31635178Y-21113428D02*
X31663750Y-21127714D01*
X31720892Y-21127714D01*
X31749464Y-21113428D01*
X31763750Y-21084857D01*
X31763750Y-20970571D01*
X31749464Y-20942000D01*
X31720892Y-20927714D01*
X31663750Y-20927714D01*
X31635178Y-20942000D01*
X31620892Y-20970571D01*
X31620892Y-20999142D01*
X31763750Y-21027714D01*
X31135178Y-21113428D02*
X31163750Y-21127714D01*
X31220892Y-21127714D01*
X31249464Y-21113428D01*
X31263750Y-21099142D01*
X31278035Y-21070571D01*
X31278035Y-20984857D01*
X31263750Y-20956285D01*
X31249464Y-20942000D01*
X31220892Y-20927714D01*
X31163750Y-20927714D01*
X31135178Y-20942000D01*
X30963750Y-21127714D02*
X30992321Y-21113428D01*
X31006607Y-21099142D01*
X31020892Y-21070571D01*
X31020892Y-20984857D01*
X31006607Y-20956285D01*
X30992321Y-20942000D01*
X30963750Y-20927714D01*
X30920892Y-20927714D01*
X30892321Y-20942000D01*
X30878035Y-20956285D01*
X30863750Y-20984857D01*
X30863750Y-21070571D01*
X30878035Y-21099142D01*
X30892321Y-21113428D01*
X30920892Y-21127714D01*
X30963750Y-21127714D01*
X30735178Y-21127714D02*
X30735178Y-20927714D01*
X30735178Y-20956285D02*
X30720892Y-20942000D01*
X30692321Y-20927714D01*
X30649464Y-20927714D01*
X30620892Y-20942000D01*
X30606607Y-20970571D01*
X30606607Y-21127714D01*
X30606607Y-20970571D02*
X30592321Y-20942000D01*
X30563750Y-20927714D01*
X30520892Y-20927714D01*
X30492321Y-20942000D01*
X30478035Y-20970571D01*
X30478035Y-21127714D01*
X30335178Y-21127714D02*
X30335178Y-20827714D01*
X30335178Y-20942000D02*
X30306607Y-20927714D01*
X30249464Y-20927714D01*
X30220892Y-20942000D01*
X30206607Y-20956285D01*
X30192321Y-20984857D01*
X30192321Y-21070571D01*
X30206607Y-21099142D01*
X30220892Y-21113428D01*
X30249464Y-21127714D01*
X30306607Y-21127714D01*
X30335178Y-21113428D01*
X30063750Y-21127714D02*
X30063750Y-20927714D01*
X30063750Y-20827714D02*
X30078035Y-20842000D01*
X30063750Y-20856285D01*
X30049464Y-20842000D01*
X30063750Y-20827714D01*
X30063750Y-20856285D01*
X29920892Y-20927714D02*
X29920892Y-21127714D01*
X29920892Y-20956285D02*
X29906607Y-20942000D01*
X29878035Y-20927714D01*
X29835178Y-20927714D01*
X29806607Y-20942000D01*
X29792321Y-20970571D01*
X29792321Y-21127714D01*
X29535178Y-21113428D02*
X29563750Y-21127714D01*
X29620892Y-21127714D01*
X29649464Y-21113428D01*
X29663750Y-21084857D01*
X29663750Y-20970571D01*
X29649464Y-20942000D01*
X29620892Y-20927714D01*
X29563750Y-20927714D01*
X29535178Y-20942000D01*
X29520892Y-20970571D01*
X29520892Y-20999142D01*
X29663750Y-21027714D01*
X29392321Y-21127714D02*
X29392321Y-20927714D01*
X29392321Y-20984857D02*
X29378035Y-20956285D01*
X29363750Y-20942000D01*
X29335178Y-20927714D01*
X29306607Y-20927714D01*
X29206607Y-21099142D02*
X29192321Y-21113428D01*
X29206607Y-21127714D01*
X29220892Y-21113428D01*
X29206607Y-21099142D01*
X29206607Y-21127714D01*
X42535178Y-21808000D02*
X42563750Y-21793714D01*
X42606607Y-21793714D01*
X42649464Y-21808000D01*
X42678035Y-21836571D01*
X42692321Y-21865142D01*
X42706607Y-21922285D01*
X42706607Y-21965142D01*
X42692321Y-22022285D01*
X42678035Y-22050857D01*
X42649464Y-22079428D01*
X42606607Y-22093714D01*
X42578035Y-22093714D01*
X42535178Y-22079428D01*
X42520892Y-22065142D01*
X42520892Y-21965142D01*
X42578035Y-21965142D01*
X42263750Y-22093714D02*
X42263750Y-21936571D01*
X42278035Y-21908000D01*
X42306607Y-21893714D01*
X42363750Y-21893714D01*
X42392321Y-21908000D01*
X42263750Y-22079428D02*
X42292321Y-22093714D01*
X42363750Y-22093714D01*
X42392321Y-22079428D01*
X42406607Y-22050857D01*
X42406607Y-22022285D01*
X42392321Y-21993714D01*
X42363750Y-21979428D01*
X42292321Y-21979428D01*
X42263750Y-21965142D01*
X42120892Y-22093714D02*
X42120892Y-21893714D01*
X42120892Y-21793714D02*
X42135178Y-21808000D01*
X42120892Y-21822285D01*
X42106607Y-21808000D01*
X42120892Y-21793714D01*
X42120892Y-21822285D01*
X41978035Y-21893714D02*
X41978035Y-22093714D01*
X41978035Y-21922285D02*
X41963750Y-21908000D01*
X41935178Y-21893714D01*
X41892321Y-21893714D01*
X41863750Y-21908000D01*
X41849464Y-21936571D01*
X41849464Y-22093714D01*
X41392321Y-21793714D02*
X41392321Y-22008000D01*
X41406607Y-22050857D01*
X41435178Y-22079428D01*
X41478035Y-22093714D01*
X41506607Y-22093714D01*
X41120892Y-21893714D02*
X41120892Y-22093714D01*
X41249464Y-21893714D02*
X41249464Y-22050857D01*
X41235178Y-22079428D01*
X41206607Y-22093714D01*
X41163750Y-22093714D01*
X41135178Y-22079428D01*
X41120892Y-22065142D01*
X40978035Y-22093714D02*
X40978035Y-21893714D01*
X40978035Y-21922285D02*
X40963750Y-21908000D01*
X40935178Y-21893714D01*
X40892321Y-21893714D01*
X40863750Y-21908000D01*
X40849464Y-21936571D01*
X40849464Y-22093714D01*
X40849464Y-21936571D02*
X40835178Y-21908000D01*
X40806607Y-21893714D01*
X40763750Y-21893714D01*
X40735178Y-21908000D01*
X40720892Y-21936571D01*
X40720892Y-22093714D01*
X40578035Y-21893714D02*
X40578035Y-22193714D01*
X40578035Y-21908000D02*
X40549464Y-21893714D01*
X40492321Y-21893714D01*
X40463750Y-21908000D01*
X40449464Y-21922285D01*
X40435178Y-21950857D01*
X40435178Y-22036571D01*
X40449464Y-22065142D01*
X40463750Y-22079428D01*
X40492321Y-22093714D01*
X40549464Y-22093714D01*
X40578035Y-22079428D01*
X40192321Y-22079428D02*
X40220892Y-22093714D01*
X40278035Y-22093714D01*
X40306607Y-22079428D01*
X40320892Y-22050857D01*
X40320892Y-21936571D01*
X40306607Y-21908000D01*
X40278035Y-21893714D01*
X40220892Y-21893714D01*
X40192321Y-21908000D01*
X40178035Y-21936571D01*
X40178035Y-21965142D01*
X40320892Y-21993714D01*
X40049464Y-22093714D02*
X40049464Y-21893714D01*
X40049464Y-21950857D02*
X40035178Y-21922285D01*
X40020892Y-21908000D01*
X39992321Y-21893714D01*
X39963750Y-21893714D01*
X39878035Y-22079428D02*
X39849464Y-22093714D01*
X39792321Y-22093714D01*
X39763750Y-22079428D01*
X39749464Y-22050857D01*
X39749464Y-22036571D01*
X39763750Y-22008000D01*
X39792321Y-21993714D01*
X39835178Y-21993714D01*
X39863750Y-21979428D01*
X39878035Y-21950857D01*
X39878035Y-21936571D01*
X39863750Y-21908000D01*
X39835178Y-21893714D01*
X39792321Y-21893714D01*
X39763750Y-21908000D01*
X39620892Y-22065142D02*
X39606607Y-22079428D01*
X39620892Y-22093714D01*
X39635178Y-22079428D01*
X39620892Y-22065142D01*
X39620892Y-22093714D01*
X39620892Y-21908000D02*
X39606607Y-21922285D01*
X39620892Y-21936571D01*
X39635178Y-21922285D01*
X39620892Y-21908000D01*
X39620892Y-21936571D01*
X39078035Y-22093714D02*
X39178035Y-21950857D01*
X39249464Y-22093714D02*
X39249464Y-21793714D01*
X39135178Y-21793714D01*
X39106607Y-21808000D01*
X39092321Y-21822285D01*
X39078035Y-21850857D01*
X39078035Y-21893714D01*
X39092321Y-21922285D01*
X39106607Y-21936571D01*
X39135178Y-21950857D01*
X39249464Y-21950857D01*
X38949464Y-22093714D02*
X38949464Y-21893714D01*
X38949464Y-21793714D02*
X38963750Y-21808000D01*
X38949464Y-21822285D01*
X38935178Y-21808000D01*
X38949464Y-21793714D01*
X38949464Y-21822285D01*
X38678035Y-21893714D02*
X38678035Y-22136571D01*
X38692321Y-22165142D01*
X38706607Y-22179428D01*
X38735178Y-22193714D01*
X38778035Y-22193714D01*
X38806607Y-22179428D01*
X38678035Y-22079428D02*
X38706607Y-22093714D01*
X38763750Y-22093714D01*
X38792321Y-22079428D01*
X38806607Y-22065142D01*
X38820892Y-22036571D01*
X38820892Y-21950857D01*
X38806607Y-21922285D01*
X38792321Y-21908000D01*
X38763750Y-21893714D01*
X38706607Y-21893714D01*
X38678035Y-21908000D01*
X38535178Y-22093714D02*
X38535178Y-21793714D01*
X38406607Y-22093714D02*
X38406607Y-21936571D01*
X38420892Y-21908000D01*
X38449464Y-21893714D01*
X38492321Y-21893714D01*
X38520892Y-21908000D01*
X38535178Y-21922285D01*
X38306607Y-21893714D02*
X38192321Y-21893714D01*
X38263750Y-21793714D02*
X38263750Y-22050857D01*
X38249464Y-22079428D01*
X38220892Y-22093714D01*
X38192321Y-22093714D01*
X37906607Y-21893714D02*
X37792321Y-21893714D01*
X37863750Y-21793714D02*
X37863750Y-22050857D01*
X37849464Y-22079428D01*
X37820892Y-22093714D01*
X37792321Y-22093714D01*
X37720892Y-21893714D02*
X37663750Y-22093714D01*
X37606607Y-21950857D01*
X37549464Y-22093714D01*
X37492321Y-21893714D01*
X37335178Y-22093714D02*
X37363750Y-22079428D01*
X37378035Y-22065142D01*
X37392321Y-22036571D01*
X37392321Y-21950857D01*
X37378035Y-21922285D01*
X37363750Y-21908000D01*
X37335178Y-21893714D01*
X37292321Y-21893714D01*
X37263750Y-21908000D01*
X37249464Y-21922285D01*
X37235178Y-21950857D01*
X37235178Y-22036571D01*
X37249464Y-22065142D01*
X37263750Y-22079428D01*
X37292321Y-22093714D01*
X37335178Y-22093714D01*
X36878035Y-21893714D02*
X36878035Y-22193714D01*
X36878035Y-21908000D02*
X36849464Y-21893714D01*
X36792321Y-21893714D01*
X36763750Y-21908000D01*
X36749464Y-21922285D01*
X36735178Y-21950857D01*
X36735178Y-22036571D01*
X36749464Y-22065142D01*
X36763750Y-22079428D01*
X36792321Y-22093714D01*
X36849464Y-22093714D01*
X36878035Y-22079428D01*
X36478035Y-22093714D02*
X36478035Y-21936571D01*
X36492321Y-21908000D01*
X36520892Y-21893714D01*
X36578035Y-21893714D01*
X36606607Y-21908000D01*
X36478035Y-22079428D02*
X36506607Y-22093714D01*
X36578035Y-22093714D01*
X36606607Y-22079428D01*
X36620892Y-22050857D01*
X36620892Y-22022285D01*
X36606607Y-21993714D01*
X36578035Y-21979428D01*
X36506607Y-21979428D01*
X36478035Y-21965142D01*
X36206607Y-22093714D02*
X36206607Y-21793714D01*
X36206607Y-22079428D02*
X36235178Y-22093714D01*
X36292321Y-22093714D01*
X36320892Y-22079428D01*
X36335178Y-22065142D01*
X36349464Y-22036571D01*
X36349464Y-21950857D01*
X36335178Y-21922285D01*
X36320892Y-21908000D01*
X36292321Y-21893714D01*
X36235178Y-21893714D01*
X36206607Y-21908000D01*
X36078035Y-22079428D02*
X36049464Y-22093714D01*
X35992321Y-22093714D01*
X35963750Y-22079428D01*
X35949464Y-22050857D01*
X35949464Y-22036571D01*
X35963750Y-22008000D01*
X35992321Y-21993714D01*
X36035178Y-21993714D01*
X36063750Y-21979428D01*
X36078035Y-21950857D01*
X36078035Y-21936571D01*
X36063750Y-21908000D01*
X36035178Y-21893714D01*
X35992321Y-21893714D01*
X35963750Y-21908000D01*
X35635178Y-21893714D02*
X35520892Y-21893714D01*
X35592321Y-22093714D02*
X35592321Y-21836571D01*
X35578035Y-21808000D01*
X35549464Y-21793714D01*
X35520892Y-21793714D01*
X35378035Y-22093714D02*
X35406607Y-22079428D01*
X35420892Y-22065142D01*
X35435178Y-22036571D01*
X35435178Y-21950857D01*
X35420892Y-21922285D01*
X35406607Y-21908000D01*
X35378035Y-21893714D01*
X35335178Y-21893714D01*
X35306607Y-21908000D01*
X35292321Y-21922285D01*
X35278035Y-21950857D01*
X35278035Y-22036571D01*
X35292321Y-22065142D01*
X35306607Y-22079428D01*
X35335178Y-22093714D01*
X35378035Y-22093714D01*
X35149464Y-22093714D02*
X35149464Y-21893714D01*
X35149464Y-21950857D02*
X35135178Y-21922285D01*
X35120892Y-21908000D01*
X35092321Y-21893714D01*
X35063750Y-21893714D01*
X34606607Y-22093714D02*
X34606607Y-21936571D01*
X34620892Y-21908000D01*
X34649464Y-21893714D01*
X34706607Y-21893714D01*
X34735178Y-21908000D01*
X34606607Y-22079428D02*
X34635178Y-22093714D01*
X34706607Y-22093714D01*
X34735178Y-22079428D01*
X34749464Y-22050857D01*
X34749464Y-22022285D01*
X34735178Y-21993714D01*
X34706607Y-21979428D01*
X34635178Y-21979428D01*
X34606607Y-21965142D01*
X34463750Y-22093714D02*
X34463750Y-21893714D01*
X34463750Y-21922285D02*
X34449464Y-21908000D01*
X34420892Y-21893714D01*
X34378035Y-21893714D01*
X34349464Y-21908000D01*
X34335178Y-21936571D01*
X34335178Y-22093714D01*
X34335178Y-21936571D02*
X34320892Y-21908000D01*
X34292321Y-21893714D01*
X34249464Y-21893714D01*
X34220892Y-21908000D01*
X34206607Y-21936571D01*
X34206607Y-22093714D01*
X34063750Y-21893714D02*
X34063750Y-22193714D01*
X34063750Y-21908000D02*
X34035178Y-21893714D01*
X33978035Y-21893714D01*
X33949464Y-21908000D01*
X33935178Y-21922285D01*
X33920892Y-21950857D01*
X33920892Y-22036571D01*
X33935178Y-22065142D01*
X33949464Y-22079428D01*
X33978035Y-22093714D01*
X34035178Y-22093714D01*
X34063750Y-22079428D01*
X33749464Y-22093714D02*
X33778035Y-22079428D01*
X33792321Y-22050857D01*
X33792321Y-21793714D01*
X33635178Y-22093714D02*
X33635178Y-21893714D01*
X33635178Y-21793714D02*
X33649464Y-21808000D01*
X33635178Y-21822285D01*
X33620892Y-21808000D01*
X33635178Y-21793714D01*
X33635178Y-21822285D01*
X33535178Y-21893714D02*
X33420892Y-21893714D01*
X33492321Y-22093714D02*
X33492321Y-21836571D01*
X33478035Y-21808000D01*
X33449464Y-21793714D01*
X33420892Y-21793714D01*
X33320892Y-22093714D02*
X33320892Y-21893714D01*
X33320892Y-21793714D02*
X33335178Y-21808000D01*
X33320892Y-21822285D01*
X33306607Y-21808000D01*
X33320892Y-21793714D01*
X33320892Y-21822285D01*
X33063750Y-22079428D02*
X33092321Y-22093714D01*
X33149464Y-22093714D01*
X33178035Y-22079428D01*
X33192321Y-22050857D01*
X33192321Y-21936571D01*
X33178035Y-21908000D01*
X33149464Y-21893714D01*
X33092321Y-21893714D01*
X33063750Y-21908000D01*
X33049464Y-21936571D01*
X33049464Y-21965142D01*
X33192321Y-21993714D01*
X32920892Y-22093714D02*
X32920892Y-21893714D01*
X32920892Y-21950857D02*
X32906607Y-21922285D01*
X32892321Y-21908000D01*
X32863750Y-21893714D01*
X32835178Y-21893714D01*
X32520892Y-21779428D02*
X32778035Y-22165142D01*
X32463750Y-21893714D02*
X32349464Y-21893714D01*
X32420892Y-22093714D02*
X32420892Y-21836571D01*
X32406607Y-21808000D01*
X32378035Y-21793714D01*
X32349464Y-21793714D01*
X32249464Y-22093714D02*
X32249464Y-21893714D01*
X32249464Y-21793714D02*
X32263750Y-21808000D01*
X32249464Y-21822285D01*
X32235178Y-21808000D01*
X32249464Y-21793714D01*
X32249464Y-21822285D01*
X32063750Y-22093714D02*
X32092321Y-22079428D01*
X32106607Y-22050857D01*
X32106607Y-21793714D01*
X31992321Y-21893714D02*
X31878035Y-21893714D01*
X31949464Y-21793714D02*
X31949464Y-22050857D01*
X31935178Y-22079428D01*
X31906607Y-22093714D01*
X31878035Y-22093714D01*
X31663750Y-22079428D02*
X31692321Y-22093714D01*
X31749464Y-22093714D01*
X31778035Y-22079428D01*
X31792321Y-22050857D01*
X31792321Y-21936571D01*
X31778035Y-21908000D01*
X31749464Y-21893714D01*
X31692321Y-21893714D01*
X31663750Y-21908000D01*
X31649464Y-21936571D01*
X31649464Y-21965142D01*
X31792321Y-21993714D01*
X31520892Y-22093714D02*
X31520892Y-21893714D01*
X31520892Y-21950857D02*
X31506607Y-21922285D01*
X31492321Y-21908000D01*
X31463750Y-21893714D01*
X31435178Y-21893714D01*
X30978035Y-22093714D02*
X30978035Y-21936571D01*
X30992321Y-21908000D01*
X31020892Y-21893714D01*
X31078035Y-21893714D01*
X31106607Y-21908000D01*
X30978035Y-22079428D02*
X31006607Y-22093714D01*
X31078035Y-22093714D01*
X31106607Y-22079428D01*
X31120892Y-22050857D01*
X31120892Y-22022285D01*
X31106607Y-21993714D01*
X31078035Y-21979428D01*
X31006607Y-21979428D01*
X30978035Y-21965142D01*
X30835178Y-21893714D02*
X30835178Y-22093714D01*
X30835178Y-21922285D02*
X30820892Y-21908000D01*
X30792321Y-21893714D01*
X30749464Y-21893714D01*
X30720892Y-21908000D01*
X30706607Y-21936571D01*
X30706607Y-22093714D01*
X30435178Y-22093714D02*
X30435178Y-21793714D01*
X30435178Y-22079428D02*
X30463750Y-22093714D01*
X30520892Y-22093714D01*
X30549464Y-22079428D01*
X30563750Y-22065142D01*
X30578035Y-22036571D01*
X30578035Y-21950857D01*
X30563750Y-21922285D01*
X30549464Y-21908000D01*
X30520892Y-21893714D01*
X30463750Y-21893714D01*
X30435178Y-21908000D01*
X30020892Y-22093714D02*
X30049464Y-22079428D01*
X30063750Y-22050857D01*
X30063750Y-21793714D01*
X29792321Y-22079428D02*
X29820892Y-22093714D01*
X29878035Y-22093714D01*
X29906607Y-22079428D01*
X29920892Y-22050857D01*
X29920892Y-21936571D01*
X29906607Y-21908000D01*
X29878035Y-21893714D01*
X29820892Y-21893714D01*
X29792321Y-21908000D01*
X29778035Y-21936571D01*
X29778035Y-21965142D01*
X29920892Y-21993714D01*
X29692321Y-21893714D02*
X29578035Y-21893714D01*
X29649464Y-22093714D02*
X29649464Y-21836571D01*
X29635178Y-21808000D01*
X29606607Y-21793714D01*
X29578035Y-21793714D01*
X29520892Y-21893714D02*
X29406607Y-21893714D01*
X29478035Y-21793714D02*
X29478035Y-22050857D01*
X29463750Y-22079428D01*
X29435178Y-22093714D01*
X29406607Y-22093714D01*
X29120892Y-21893714D02*
X29006607Y-21893714D01*
X29078035Y-21793714D02*
X29078035Y-22050857D01*
X29063750Y-22079428D01*
X29035178Y-22093714D01*
X29006607Y-22093714D01*
X28935178Y-21893714D02*
X28878035Y-22093714D01*
X28820892Y-21950857D01*
X28763750Y-22093714D01*
X28706607Y-21893714D01*
X28549464Y-22093714D02*
X28578035Y-22079428D01*
X28592321Y-22065142D01*
X28606607Y-22036571D01*
X28606607Y-21950857D01*
X28592321Y-21922285D01*
X28578035Y-21908000D01*
X28549464Y-21893714D01*
X28506607Y-21893714D01*
X28478035Y-21908000D01*
X28463750Y-21922285D01*
X28449464Y-21950857D01*
X28449464Y-22036571D01*
X28463750Y-22065142D01*
X28478035Y-22079428D01*
X28506607Y-22093714D01*
X28549464Y-22093714D01*
X28092321Y-21893714D02*
X28092321Y-22193714D01*
X28092321Y-21908000D02*
X28063750Y-21893714D01*
X28006607Y-21893714D01*
X27978035Y-21908000D01*
X27963750Y-21922285D01*
X27949464Y-21950857D01*
X27949464Y-22036571D01*
X27963750Y-22065142D01*
X27978035Y-22079428D01*
X28006607Y-22093714D01*
X28063750Y-22093714D01*
X28092321Y-22079428D01*
X27692321Y-22093714D02*
X27692321Y-21936571D01*
X27706607Y-21908000D01*
X27735178Y-21893714D01*
X27792321Y-21893714D01*
X27820892Y-21908000D01*
X27692321Y-22079428D02*
X27720892Y-22093714D01*
X27792321Y-22093714D01*
X27820892Y-22079428D01*
X27835178Y-22050857D01*
X27835178Y-22022285D01*
X27820892Y-21993714D01*
X27792321Y-21979428D01*
X27720892Y-21979428D01*
X27692321Y-21965142D01*
X27420892Y-22093714D02*
X27420892Y-21793714D01*
X27420892Y-22079428D02*
X27449464Y-22093714D01*
X27506607Y-22093714D01*
X27535178Y-22079428D01*
X27549464Y-22065142D01*
X27563750Y-22036571D01*
X27563750Y-21950857D01*
X27549464Y-21922285D01*
X27535178Y-21908000D01*
X27506607Y-21893714D01*
X27449464Y-21893714D01*
X27420892Y-21908000D01*
X27292321Y-22079428D02*
X27263750Y-22093714D01*
X27206607Y-22093714D01*
X27178035Y-22079428D01*
X27163750Y-22050857D01*
X27163750Y-22036571D01*
X27178035Y-22008000D01*
X27206607Y-21993714D01*
X27249464Y-21993714D01*
X27278035Y-21979428D01*
X27292321Y-21950857D01*
X27292321Y-21936571D01*
X27278035Y-21908000D01*
X27249464Y-21893714D01*
X27206607Y-21893714D01*
X27178035Y-21908000D01*
X26849464Y-21893714D02*
X26735178Y-21893714D01*
X26806607Y-22093714D02*
X26806607Y-21836571D01*
X26792321Y-21808000D01*
X26763750Y-21793714D01*
X26735178Y-21793714D01*
X26592321Y-22093714D02*
X26620892Y-22079428D01*
X26635178Y-22065142D01*
X26649464Y-22036571D01*
X26649464Y-21950857D01*
X26635178Y-21922285D01*
X26620892Y-21908000D01*
X26592321Y-21893714D01*
X26549464Y-21893714D01*
X26520892Y-21908000D01*
X26506607Y-21922285D01*
X26492321Y-21950857D01*
X26492321Y-22036571D01*
X26506607Y-22065142D01*
X26520892Y-22079428D01*
X26549464Y-22093714D01*
X26592321Y-22093714D01*
X26363750Y-22093714D02*
X26363750Y-21893714D01*
X26363750Y-21950857D02*
X26349464Y-21922285D01*
X26335178Y-21908000D01*
X26306607Y-21893714D01*
X26278035Y-21893714D01*
X25992321Y-21893714D02*
X25878035Y-21893714D01*
X25949464Y-22093714D02*
X25949464Y-21836571D01*
X25935178Y-21808000D01*
X25906607Y-21793714D01*
X25878035Y-21793714D01*
X25778035Y-22093714D02*
X25778035Y-21893714D01*
X25778035Y-21793714D02*
X25792321Y-21808000D01*
X25778035Y-21822285D01*
X25763750Y-21808000D01*
X25778035Y-21793714D01*
X25778035Y-21822285D01*
X25592321Y-22093714D02*
X25620892Y-22079428D01*
X25635178Y-22050857D01*
X25635178Y-21793714D01*
X25520892Y-21893714D02*
X25406607Y-21893714D01*
X25478035Y-21793714D02*
X25478035Y-22050857D01*
X25463750Y-22079428D01*
X25435178Y-22093714D01*
X25406607Y-22093714D01*
X25192321Y-22079428D02*
X25220892Y-22093714D01*
X25278035Y-22093714D01*
X25306607Y-22079428D01*
X25320892Y-22050857D01*
X25320892Y-21936571D01*
X25306607Y-21908000D01*
X25278035Y-21893714D01*
X25220892Y-21893714D01*
X25192321Y-21908000D01*
X25178035Y-21936571D01*
X25178035Y-21965142D01*
X25320892Y-21993714D01*
X25049464Y-22093714D02*
X25049464Y-21893714D01*
X25049464Y-21950857D02*
X25035178Y-21922285D01*
X25020892Y-21908000D01*
X24992321Y-21893714D01*
X24963750Y-21893714D01*
X24592321Y-22093714D02*
X24620892Y-22079428D01*
X24635178Y-22065142D01*
X24649464Y-22036571D01*
X24649464Y-21950857D01*
X24635178Y-21922285D01*
X24620892Y-21908000D01*
X24592321Y-21893714D01*
X24549464Y-21893714D01*
X24520892Y-21908000D01*
X24506607Y-21922285D01*
X24492321Y-21950857D01*
X24492321Y-22036571D01*
X24506607Y-22065142D01*
X24520892Y-22079428D01*
X24549464Y-22093714D01*
X24592321Y-22093714D01*
X24363750Y-21893714D02*
X24363750Y-22093714D01*
X24363750Y-21922285D02*
X24349464Y-21908000D01*
X24320892Y-21893714D01*
X24278035Y-21893714D01*
X24249464Y-21908000D01*
X24235178Y-21936571D01*
X24235178Y-22093714D01*
X24049464Y-22093714D02*
X24078035Y-22079428D01*
X24092321Y-22050857D01*
X24092321Y-21793714D01*
X23963750Y-21893714D02*
X23892321Y-22093714D01*
X23820892Y-21893714D02*
X23892321Y-22093714D01*
X23920892Y-22165142D01*
X23935178Y-22179428D01*
X23963750Y-22193714D01*
X23706607Y-22065142D02*
X23692321Y-22079428D01*
X23706607Y-22093714D01*
X23720892Y-22079428D01*
X23706607Y-22065142D01*
X23706607Y-22093714D01*
X42520892Y-23031142D02*
X42535178Y-23045428D01*
X42578035Y-23059714D01*
X42606607Y-23059714D01*
X42649464Y-23045428D01*
X42678035Y-23016857D01*
X42692321Y-22988285D01*
X42706607Y-22931142D01*
X42706607Y-22888285D01*
X42692321Y-22831142D01*
X42678035Y-22802571D01*
X42649464Y-22774000D01*
X42606607Y-22759714D01*
X42578035Y-22759714D01*
X42535178Y-22774000D01*
X42520892Y-22788285D01*
X42278035Y-23045428D02*
X42306607Y-23059714D01*
X42363750Y-23059714D01*
X42392321Y-23045428D01*
X42406607Y-23016857D01*
X42406607Y-22902571D01*
X42392321Y-22874000D01*
X42363750Y-22859714D01*
X42306607Y-22859714D01*
X42278035Y-22874000D01*
X42263750Y-22902571D01*
X42263750Y-22931142D01*
X42406607Y-22959714D01*
X42135178Y-23059714D02*
X42135178Y-22859714D01*
X42135178Y-22916857D02*
X42120892Y-22888285D01*
X42106607Y-22874000D01*
X42078035Y-22859714D01*
X42049464Y-22859714D01*
X41820892Y-23059714D02*
X41820892Y-22902571D01*
X41835178Y-22874000D01*
X41863750Y-22859714D01*
X41920892Y-22859714D01*
X41949464Y-22874000D01*
X41820892Y-23045428D02*
X41849464Y-23059714D01*
X41920892Y-23059714D01*
X41949464Y-23045428D01*
X41963750Y-23016857D01*
X41963750Y-22988285D01*
X41949464Y-22959714D01*
X41920892Y-22945428D01*
X41849464Y-22945428D01*
X41820892Y-22931142D01*
X41678035Y-23059714D02*
X41678035Y-22859714D01*
X41678035Y-22888285D02*
X41663750Y-22874000D01*
X41635178Y-22859714D01*
X41592321Y-22859714D01*
X41563750Y-22874000D01*
X41549464Y-22902571D01*
X41549464Y-23059714D01*
X41549464Y-22902571D02*
X41535178Y-22874000D01*
X41506607Y-22859714D01*
X41463750Y-22859714D01*
X41435178Y-22874000D01*
X41420892Y-22902571D01*
X41420892Y-23059714D01*
X41278035Y-23059714D02*
X41278035Y-22859714D01*
X41278035Y-22759714D02*
X41292321Y-22774000D01*
X41278035Y-22788285D01*
X41263750Y-22774000D01*
X41278035Y-22759714D01*
X41278035Y-22788285D01*
X41006607Y-23045428D02*
X41035178Y-23059714D01*
X41092321Y-23059714D01*
X41120892Y-23045428D01*
X41135178Y-23031142D01*
X41149464Y-23002571D01*
X41149464Y-22916857D01*
X41135178Y-22888285D01*
X41120892Y-22874000D01*
X41092321Y-22859714D01*
X41035178Y-22859714D01*
X41006607Y-22874000D01*
X40520892Y-23045428D02*
X40549464Y-23059714D01*
X40606607Y-23059714D01*
X40635178Y-23045428D01*
X40649464Y-23031142D01*
X40663750Y-23002571D01*
X40663750Y-22916857D01*
X40649464Y-22888285D01*
X40635178Y-22874000D01*
X40606607Y-22859714D01*
X40549464Y-22859714D01*
X40520892Y-22874000D01*
X40263750Y-23059714D02*
X40263750Y-22902571D01*
X40278035Y-22874000D01*
X40306607Y-22859714D01*
X40363750Y-22859714D01*
X40392321Y-22874000D01*
X40263750Y-23045428D02*
X40292321Y-23059714D01*
X40363750Y-23059714D01*
X40392321Y-23045428D01*
X40406607Y-23016857D01*
X40406607Y-22988285D01*
X40392321Y-22959714D01*
X40363750Y-22945428D01*
X40292321Y-22945428D01*
X40263750Y-22931142D01*
X40120892Y-22859714D02*
X40120892Y-23159714D01*
X40120892Y-22874000D02*
X40092321Y-22859714D01*
X40035178Y-22859714D01*
X40006607Y-22874000D01*
X39992321Y-22888285D01*
X39978035Y-22916857D01*
X39978035Y-23002571D01*
X39992321Y-23031142D01*
X40006607Y-23045428D01*
X40035178Y-23059714D01*
X40092321Y-23059714D01*
X40120892Y-23045428D01*
X39863750Y-23045428D02*
X39835178Y-23059714D01*
X39778035Y-23059714D01*
X39749464Y-23045428D01*
X39735178Y-23016857D01*
X39735178Y-23002571D01*
X39749464Y-22974000D01*
X39778035Y-22959714D01*
X39820892Y-22959714D01*
X39849464Y-22945428D01*
X39863750Y-22916857D01*
X39863750Y-22902571D01*
X39849464Y-22874000D01*
X39820892Y-22859714D01*
X39778035Y-22859714D01*
X39749464Y-22874000D01*
X39606607Y-23031142D02*
X39592321Y-23045428D01*
X39606607Y-23059714D01*
X39620892Y-23045428D01*
X39606607Y-23031142D01*
X39606607Y-23059714D01*
X39606607Y-22874000D02*
X39592321Y-22888285D01*
X39606607Y-22902571D01*
X39620892Y-22888285D01*
X39606607Y-22874000D01*
X39606607Y-22902571D01*
X39078035Y-23059714D02*
X39249464Y-23059714D01*
X39163750Y-23059714D02*
X39163750Y-22759714D01*
X39192321Y-22802571D01*
X39220892Y-22831142D01*
X39249464Y-22845428D01*
X38892321Y-22759714D02*
X38863750Y-22759714D01*
X38835178Y-22774000D01*
X38820892Y-22788285D01*
X38806607Y-22816857D01*
X38792321Y-22874000D01*
X38792321Y-22945428D01*
X38806607Y-23002571D01*
X38820892Y-23031142D01*
X38835178Y-23045428D01*
X38863750Y-23059714D01*
X38892321Y-23059714D01*
X38920892Y-23045428D01*
X38935178Y-23031142D01*
X38949464Y-23002571D01*
X38963750Y-22945428D01*
X38963750Y-22874000D01*
X38949464Y-22816857D01*
X38935178Y-22788285D01*
X38920892Y-22774000D01*
X38892321Y-22759714D01*
X38606607Y-22759714D02*
X38578035Y-22759714D01*
X38549464Y-22774000D01*
X38535178Y-22788285D01*
X38520892Y-22816857D01*
X38506607Y-22874000D01*
X38506607Y-22945428D01*
X38520892Y-23002571D01*
X38535178Y-23031142D01*
X38549464Y-23045428D01*
X38578035Y-23059714D01*
X38606607Y-23059714D01*
X38635178Y-23045428D01*
X38649464Y-23031142D01*
X38663750Y-23002571D01*
X38678035Y-22945428D01*
X38678035Y-22874000D01*
X38663750Y-22816857D01*
X38649464Y-22788285D01*
X38635178Y-22774000D01*
X38606607Y-22759714D01*
X38378035Y-22859714D02*
X38378035Y-23059714D01*
X38378035Y-22888285D02*
X38363750Y-22874000D01*
X38335178Y-22859714D01*
X38292321Y-22859714D01*
X38263750Y-22874000D01*
X38249464Y-22902571D01*
X38249464Y-23059714D01*
X38149464Y-22859714D02*
X38035178Y-22859714D01*
X38106607Y-23059714D02*
X38106607Y-22802571D01*
X38092321Y-22774000D01*
X38063750Y-22759714D01*
X38035178Y-22759714D01*
X37920892Y-23045428D02*
X37920892Y-23059714D01*
X37935178Y-23088285D01*
X37949464Y-23102571D01*
X37563750Y-22902571D02*
X37463750Y-22902571D01*
X37420892Y-23059714D02*
X37563750Y-23059714D01*
X37563750Y-22759714D01*
X37420892Y-22759714D01*
X37249464Y-23059714D02*
X37278035Y-23045428D01*
X37292321Y-23016857D01*
X37292321Y-22759714D01*
X37020892Y-23045428D02*
X37049464Y-23059714D01*
X37106607Y-23059714D01*
X37135178Y-23045428D01*
X37149464Y-23016857D01*
X37149464Y-22902571D01*
X37135178Y-22874000D01*
X37106607Y-22859714D01*
X37049464Y-22859714D01*
X37020892Y-22874000D01*
X37006607Y-22902571D01*
X37006607Y-22931142D01*
X37149464Y-22959714D01*
X36749464Y-23045428D02*
X36778035Y-23059714D01*
X36835178Y-23059714D01*
X36863750Y-23045428D01*
X36878035Y-23031142D01*
X36892321Y-23002571D01*
X36892321Y-22916857D01*
X36878035Y-22888285D01*
X36863750Y-22874000D01*
X36835178Y-22859714D01*
X36778035Y-22859714D01*
X36749464Y-22874000D01*
X36663750Y-22859714D02*
X36549464Y-22859714D01*
X36620892Y-22759714D02*
X36620892Y-23016857D01*
X36606607Y-23045428D01*
X36578035Y-23059714D01*
X36549464Y-23059714D01*
X36449464Y-23059714D02*
X36449464Y-22859714D01*
X36449464Y-22916857D02*
X36435178Y-22888285D01*
X36420892Y-22874000D01*
X36392321Y-22859714D01*
X36363750Y-22859714D01*
X36220892Y-23059714D02*
X36249464Y-23045428D01*
X36263750Y-23031142D01*
X36278035Y-23002571D01*
X36278035Y-22916857D01*
X36263750Y-22888285D01*
X36249464Y-22874000D01*
X36220892Y-22859714D01*
X36178035Y-22859714D01*
X36149464Y-22874000D01*
X36135178Y-22888285D01*
X36120892Y-22916857D01*
X36120892Y-23002571D01*
X36135178Y-23031142D01*
X36149464Y-23045428D01*
X36178035Y-23059714D01*
X36220892Y-23059714D01*
X35949464Y-23059714D02*
X35978035Y-23045428D01*
X35992321Y-23016857D01*
X35992321Y-22759714D01*
X35863750Y-22859714D02*
X35792321Y-23059714D01*
X35720892Y-22859714D02*
X35792321Y-23059714D01*
X35820892Y-23131142D01*
X35835178Y-23145428D01*
X35863750Y-23159714D01*
X35649464Y-22859714D02*
X35535178Y-22859714D01*
X35606607Y-22759714D02*
X35606607Y-23016857D01*
X35592321Y-23045428D01*
X35563750Y-23059714D01*
X35535178Y-23059714D01*
X35435178Y-23059714D02*
X35435178Y-22859714D01*
X35435178Y-22759714D02*
X35449464Y-22774000D01*
X35435178Y-22788285D01*
X35420892Y-22774000D01*
X35435178Y-22759714D01*
X35435178Y-22788285D01*
X35163750Y-23045428D02*
X35192321Y-23059714D01*
X35249464Y-23059714D01*
X35278035Y-23045428D01*
X35292321Y-23031142D01*
X35306607Y-23002571D01*
X35306607Y-22916857D01*
X35292321Y-22888285D01*
X35278035Y-22874000D01*
X35249464Y-22859714D01*
X35192321Y-22859714D01*
X35163750Y-22874000D01*
X35035178Y-23031142D02*
X35020892Y-23045428D01*
X35035178Y-23059714D01*
X35049464Y-23045428D01*
X35035178Y-23031142D01*
X35035178Y-23059714D01*
X35035178Y-22874000D02*
X35020892Y-22888285D01*
X35035178Y-22902571D01*
X35049464Y-22888285D01*
X35035178Y-22874000D01*
X35035178Y-22902571D01*
X34506607Y-23059714D02*
X34678035Y-23059714D01*
X34592321Y-23059714D02*
X34592321Y-22759714D01*
X34620892Y-22802571D01*
X34649464Y-22831142D01*
X34678035Y-22845428D01*
X34320892Y-22759714D02*
X34292321Y-22759714D01*
X34263750Y-22774000D01*
X34249464Y-22788285D01*
X34235178Y-22816857D01*
X34220892Y-22874000D01*
X34220892Y-22945428D01*
X34235178Y-23002571D01*
X34249464Y-23031142D01*
X34263750Y-23045428D01*
X34292321Y-23059714D01*
X34320892Y-23059714D01*
X34349464Y-23045428D01*
X34363750Y-23031142D01*
X34378035Y-23002571D01*
X34392321Y-22945428D01*
X34392321Y-22874000D01*
X34378035Y-22816857D01*
X34363750Y-22788285D01*
X34349464Y-22774000D01*
X34320892Y-22759714D01*
X33906607Y-22945428D02*
X33892321Y-22931142D01*
X33863750Y-22916857D01*
X33806607Y-22945428D01*
X33778035Y-22931142D01*
X33763750Y-22916857D01*
X33292321Y-22859714D02*
X33292321Y-23059714D01*
X33363750Y-22745428D02*
X33435178Y-22959714D01*
X33249464Y-22959714D01*
X33163750Y-22759714D02*
X32963750Y-22759714D01*
X33092321Y-23059714D01*
X32720892Y-22859714D02*
X32720892Y-23059714D01*
X32849464Y-22859714D02*
X32849464Y-23016857D01*
X32835178Y-23045428D01*
X32806607Y-23059714D01*
X32763750Y-23059714D01*
X32735178Y-23045428D01*
X32720892Y-23031142D01*
X32478035Y-22902571D02*
X32578035Y-22902571D01*
X32578035Y-23059714D02*
X32578035Y-22759714D01*
X32435178Y-22759714D01*
X32320892Y-23031142D02*
X32306607Y-23045428D01*
X32320892Y-23059714D01*
X32335178Y-23045428D01*
X32320892Y-23031142D01*
X32320892Y-23059714D01*
X31778035Y-23059714D02*
X31878035Y-22916857D01*
X31949464Y-23059714D02*
X31949464Y-22759714D01*
X31835178Y-22759714D01*
X31806607Y-22774000D01*
X31792321Y-22788285D01*
X31778035Y-22816857D01*
X31778035Y-22859714D01*
X31792321Y-22888285D01*
X31806607Y-22902571D01*
X31835178Y-22916857D01*
X31949464Y-22916857D01*
X31535178Y-23045428D02*
X31563750Y-23059714D01*
X31620892Y-23059714D01*
X31649464Y-23045428D01*
X31663750Y-23016857D01*
X31663750Y-22902571D01*
X31649464Y-22874000D01*
X31620892Y-22859714D01*
X31563750Y-22859714D01*
X31535178Y-22874000D01*
X31520892Y-22902571D01*
X31520892Y-22931142D01*
X31663750Y-22959714D01*
X31406607Y-23045428D02*
X31378035Y-23059714D01*
X31320892Y-23059714D01*
X31292321Y-23045428D01*
X31278035Y-23016857D01*
X31278035Y-23002571D01*
X31292321Y-22974000D01*
X31320892Y-22959714D01*
X31363750Y-22959714D01*
X31392321Y-22945428D01*
X31406607Y-22916857D01*
X31406607Y-22902571D01*
X31392321Y-22874000D01*
X31363750Y-22859714D01*
X31320892Y-22859714D01*
X31292321Y-22874000D01*
X31149464Y-23059714D02*
X31149464Y-22859714D01*
X31149464Y-22759714D02*
X31163750Y-22774000D01*
X31149464Y-22788285D01*
X31135178Y-22774000D01*
X31149464Y-22759714D01*
X31149464Y-22788285D01*
X31020892Y-23045428D02*
X30992321Y-23059714D01*
X30935178Y-23059714D01*
X30906607Y-23045428D01*
X30892321Y-23016857D01*
X30892321Y-23002571D01*
X30906607Y-22974000D01*
X30935178Y-22959714D01*
X30978035Y-22959714D01*
X31006607Y-22945428D01*
X31020892Y-22916857D01*
X31020892Y-22902571D01*
X31006607Y-22874000D01*
X30978035Y-22859714D01*
X30935178Y-22859714D01*
X30906607Y-22874000D01*
X30806607Y-22859714D02*
X30692321Y-22859714D01*
X30763750Y-22759714D02*
X30763750Y-23016857D01*
X30749464Y-23045428D01*
X30720892Y-23059714D01*
X30692321Y-23059714D01*
X30549464Y-23059714D02*
X30578035Y-23045428D01*
X30592321Y-23031142D01*
X30606607Y-23002571D01*
X30606607Y-22916857D01*
X30592321Y-22888285D01*
X30578035Y-22874000D01*
X30549464Y-22859714D01*
X30506607Y-22859714D01*
X30478035Y-22874000D01*
X30463750Y-22888285D01*
X30449464Y-22916857D01*
X30449464Y-23002571D01*
X30463750Y-23031142D01*
X30478035Y-23045428D01*
X30506607Y-23059714D01*
X30549464Y-23059714D01*
X30320892Y-23059714D02*
X30320892Y-22859714D01*
X30320892Y-22916857D02*
X30306607Y-22888285D01*
X30292321Y-22874000D01*
X30263750Y-22859714D01*
X30235178Y-22859714D01*
X30149464Y-23045428D02*
X30120892Y-23059714D01*
X30063750Y-23059714D01*
X30035178Y-23045428D01*
X30020892Y-23016857D01*
X30020892Y-23002571D01*
X30035178Y-22974000D01*
X30063750Y-22959714D01*
X30106607Y-22959714D01*
X30135178Y-22945428D01*
X30149464Y-22916857D01*
X30149464Y-22902571D01*
X30135178Y-22874000D01*
X30106607Y-22859714D01*
X30063750Y-22859714D01*
X30035178Y-22874000D01*
X29892321Y-23031142D02*
X29878035Y-23045428D01*
X29892321Y-23059714D01*
X29906607Y-23045428D01*
X29892321Y-23031142D01*
X29892321Y-23059714D01*
X29892321Y-22874000D02*
X29878035Y-22888285D01*
X29892321Y-22902571D01*
X29906607Y-22888285D01*
X29892321Y-22874000D01*
X29892321Y-22902571D01*
X29549464Y-22759714D02*
X29349464Y-22759714D01*
X29478035Y-23059714D01*
X29092321Y-22759714D02*
X29235178Y-22759714D01*
X29249464Y-22902571D01*
X29235178Y-22888285D01*
X29206607Y-22874000D01*
X29135178Y-22874000D01*
X29106607Y-22888285D01*
X29092321Y-22902571D01*
X29078035Y-22931142D01*
X29078035Y-23002571D01*
X29092321Y-23031142D01*
X29106607Y-23045428D01*
X29135178Y-23059714D01*
X29206607Y-23059714D01*
X29235178Y-23045428D01*
X29249464Y-23031142D01*
X28892321Y-22759714D02*
X28835178Y-22759714D01*
X28806607Y-22774000D01*
X28778035Y-22802571D01*
X28763750Y-22859714D01*
X28763750Y-22959714D01*
X28778035Y-23016857D01*
X28806607Y-23045428D01*
X28835178Y-23059714D01*
X28892321Y-23059714D01*
X28920892Y-23045428D01*
X28949464Y-23016857D01*
X28963750Y-22959714D01*
X28963750Y-22859714D01*
X28949464Y-22802571D01*
X28920892Y-22774000D01*
X28892321Y-22759714D01*
X28635178Y-23059714D02*
X28635178Y-22759714D01*
X28506607Y-23059714D02*
X28506607Y-22902571D01*
X28520892Y-22874000D01*
X28549464Y-22859714D01*
X28592321Y-22859714D01*
X28620892Y-22874000D01*
X28635178Y-22888285D01*
X28363750Y-23059714D02*
X28363750Y-22859714D01*
X28363750Y-22888285D02*
X28349464Y-22874000D01*
X28320892Y-22859714D01*
X28278035Y-22859714D01*
X28249464Y-22874000D01*
X28235178Y-22902571D01*
X28235178Y-23059714D01*
X28235178Y-22902571D02*
X28220892Y-22874000D01*
X28192321Y-22859714D01*
X28149464Y-22859714D01*
X28120892Y-22874000D01*
X28106607Y-22902571D01*
X28106607Y-23059714D01*
X27963750Y-23031142D02*
X27949464Y-23045428D01*
X27963750Y-23059714D01*
X27978035Y-23045428D01*
X27963750Y-23031142D01*
X27963750Y-23059714D01*
X27592321Y-22759714D02*
X27592321Y-23002571D01*
X27578035Y-23031142D01*
X27563750Y-23045428D01*
X27535178Y-23059714D01*
X27478035Y-23059714D01*
X27449464Y-23045428D01*
X27435178Y-23031142D01*
X27420892Y-23002571D01*
X27420892Y-22759714D01*
X27120892Y-23059714D02*
X27292321Y-23059714D01*
X27206607Y-23059714D02*
X27206607Y-22759714D01*
X27235178Y-22802571D01*
X27263750Y-22831142D01*
X27292321Y-22845428D01*
X26663750Y-22902571D02*
X26763750Y-22902571D01*
X26763750Y-23059714D02*
X26763750Y-22759714D01*
X26620892Y-22759714D01*
X26506607Y-23059714D02*
X26506607Y-22759714D01*
X26406607Y-22974000D01*
X26306607Y-22759714D01*
X26306607Y-23059714D01*
X26178035Y-23045428D02*
X26135178Y-23059714D01*
X26063750Y-23059714D01*
X26035178Y-23045428D01*
X26020892Y-23031142D01*
X26006607Y-23002571D01*
X26006607Y-22974000D01*
X26020892Y-22945428D01*
X26035178Y-22931142D01*
X26063750Y-22916857D01*
X26120892Y-22902571D01*
X26149464Y-22888285D01*
X26163750Y-22874000D01*
X26178035Y-22845428D01*
X26178035Y-22816857D01*
X26163750Y-22788285D01*
X26149464Y-22774000D01*
X26120892Y-22759714D01*
X26049464Y-22759714D01*
X26006607Y-22774000D01*
X25749464Y-22759714D02*
X25806607Y-22759714D01*
X25835178Y-22774000D01*
X25849464Y-22788285D01*
X25878035Y-22831142D01*
X25892321Y-22888285D01*
X25892321Y-23002571D01*
X25878035Y-23031142D01*
X25863750Y-23045428D01*
X25835178Y-23059714D01*
X25778035Y-23059714D01*
X25749464Y-23045428D01*
X25735178Y-23031142D01*
X25720892Y-23002571D01*
X25720892Y-22931142D01*
X25735178Y-22902571D01*
X25749464Y-22888285D01*
X25778035Y-22874000D01*
X25835178Y-22874000D01*
X25863750Y-22888285D01*
X25878035Y-22902571D01*
X25892321Y-22931142D01*
X25463750Y-22859714D02*
X25463750Y-23059714D01*
X25535178Y-22745428D02*
X25606607Y-22959714D01*
X25420892Y-22959714D01*
X25249464Y-22759714D02*
X25220892Y-22759714D01*
X25192321Y-22774000D01*
X25178035Y-22788285D01*
X25163750Y-22816857D01*
X25149464Y-22874000D01*
X25149464Y-22945428D01*
X25163750Y-23002571D01*
X25178035Y-23031142D01*
X25192321Y-23045428D01*
X25220892Y-23059714D01*
X25249464Y-23059714D01*
X25278035Y-23045428D01*
X25292321Y-23031142D01*
X25306607Y-23002571D01*
X25320892Y-22945428D01*
X25320892Y-22874000D01*
X25306607Y-22816857D01*
X25292321Y-22788285D01*
X25278035Y-22774000D01*
X25249464Y-22759714D01*
X24963750Y-22759714D02*
X24935178Y-22759714D01*
X24906607Y-22774000D01*
X24892321Y-22788285D01*
X24878035Y-22816857D01*
X24863750Y-22874000D01*
X24863750Y-22945428D01*
X24878035Y-23002571D01*
X24892321Y-23031142D01*
X24906607Y-23045428D01*
X24935178Y-23059714D01*
X24963750Y-23059714D01*
X24992321Y-23045428D01*
X25006607Y-23031142D01*
X25020892Y-23002571D01*
X25035178Y-22945428D01*
X25035178Y-22874000D01*
X25020892Y-22816857D01*
X25006607Y-22788285D01*
X24992321Y-22774000D01*
X24963750Y-22759714D01*
X42520892Y-26895142D02*
X42535178Y-26909428D01*
X42578035Y-26923714D01*
X42606607Y-26923714D01*
X42649464Y-26909428D01*
X42678035Y-26880857D01*
X42692321Y-26852285D01*
X42706607Y-26795142D01*
X42706607Y-26752285D01*
X42692321Y-26695142D01*
X42678035Y-26666571D01*
X42649464Y-26638000D01*
X42606607Y-26623714D01*
X42578035Y-26623714D01*
X42535178Y-26638000D01*
X42520892Y-26652285D01*
X42392321Y-26923714D02*
X42392321Y-26723714D01*
X42392321Y-26780857D02*
X42378035Y-26752285D01*
X42363750Y-26738000D01*
X42335178Y-26723714D01*
X42306607Y-26723714D01*
X42092321Y-26909428D02*
X42120892Y-26923714D01*
X42178035Y-26923714D01*
X42206607Y-26909428D01*
X42220892Y-26880857D01*
X42220892Y-26766571D01*
X42206607Y-26738000D01*
X42178035Y-26723714D01*
X42120892Y-26723714D01*
X42092321Y-26738000D01*
X42078035Y-26766571D01*
X42078035Y-26795142D01*
X42220892Y-26823714D01*
X41820892Y-26923714D02*
X41820892Y-26766571D01*
X41835178Y-26738000D01*
X41863750Y-26723714D01*
X41920892Y-26723714D01*
X41949464Y-26738000D01*
X41820892Y-26909428D02*
X41849464Y-26923714D01*
X41920892Y-26923714D01*
X41949464Y-26909428D01*
X41963750Y-26880857D01*
X41963750Y-26852285D01*
X41949464Y-26823714D01*
X41920892Y-26809428D01*
X41849464Y-26809428D01*
X41820892Y-26795142D01*
X41720892Y-26723714D02*
X41606607Y-26723714D01*
X41678035Y-26623714D02*
X41678035Y-26880857D01*
X41663750Y-26909428D01*
X41635178Y-26923714D01*
X41606607Y-26923714D01*
X41392321Y-26909428D02*
X41420892Y-26923714D01*
X41478035Y-26923714D01*
X41506607Y-26909428D01*
X41520892Y-26880857D01*
X41520892Y-26766571D01*
X41506607Y-26738000D01*
X41478035Y-26723714D01*
X41420892Y-26723714D01*
X41392321Y-26738000D01*
X41378035Y-26766571D01*
X41378035Y-26795142D01*
X41520892Y-26823714D01*
X41120892Y-26923714D02*
X41120892Y-26623714D01*
X41120892Y-26909428D02*
X41149464Y-26923714D01*
X41206607Y-26923714D01*
X41235178Y-26909428D01*
X41249464Y-26895142D01*
X41263750Y-26866571D01*
X41263750Y-26780857D01*
X41249464Y-26752285D01*
X41235178Y-26738000D01*
X41206607Y-26723714D01*
X41149464Y-26723714D01*
X41120892Y-26738000D01*
X40749464Y-26923714D02*
X40749464Y-26623714D01*
X40749464Y-26738000D02*
X40720892Y-26723714D01*
X40663750Y-26723714D01*
X40635178Y-26738000D01*
X40620892Y-26752285D01*
X40606607Y-26780857D01*
X40606607Y-26866571D01*
X40620892Y-26895142D01*
X40635178Y-26909428D01*
X40663750Y-26923714D01*
X40720892Y-26923714D01*
X40749464Y-26909428D01*
X40506607Y-26723714D02*
X40435178Y-26923714D01*
X40363750Y-26723714D02*
X40435178Y-26923714D01*
X40463750Y-26995142D01*
X40478035Y-27009428D01*
X40506607Y-27023714D01*
X39849464Y-26895142D02*
X39863750Y-26909428D01*
X39906607Y-26923714D01*
X39935178Y-26923714D01*
X39978035Y-26909428D01*
X40006607Y-26880857D01*
X40020892Y-26852285D01*
X40035178Y-26795142D01*
X40035178Y-26752285D01*
X40020892Y-26695142D01*
X40006607Y-26666571D01*
X39978035Y-26638000D01*
X39935178Y-26623714D01*
X39906607Y-26623714D01*
X39863750Y-26638000D01*
X39849464Y-26652285D01*
X39492321Y-26923714D02*
X39492321Y-26623714D01*
X39378035Y-26623714D01*
X39349464Y-26638000D01*
X39335178Y-26652285D01*
X39320892Y-26680857D01*
X39320892Y-26723714D01*
X39335178Y-26752285D01*
X39349464Y-26766571D01*
X39378035Y-26780857D01*
X39492321Y-26780857D01*
X39192321Y-26923714D02*
X39192321Y-26723714D01*
X39192321Y-26623714D02*
X39206607Y-26638000D01*
X39192321Y-26652285D01*
X39178035Y-26638000D01*
X39192321Y-26623714D01*
X39192321Y-26652285D01*
X38935178Y-26909428D02*
X38963750Y-26923714D01*
X39020892Y-26923714D01*
X39049464Y-26909428D01*
X39063750Y-26880857D01*
X39063750Y-26766571D01*
X39049464Y-26738000D01*
X39020892Y-26723714D01*
X38963750Y-26723714D01*
X38935178Y-26738000D01*
X38920892Y-26766571D01*
X38920892Y-26795142D01*
X39063750Y-26823714D01*
X38792321Y-26923714D02*
X38792321Y-26723714D01*
X38792321Y-26780857D02*
X38778035Y-26752285D01*
X38763750Y-26738000D01*
X38735178Y-26723714D01*
X38706607Y-26723714D01*
X38563750Y-26923714D02*
X38592321Y-26909428D01*
X38606607Y-26895142D01*
X38620892Y-26866571D01*
X38620892Y-26780857D01*
X38606607Y-26752285D01*
X38592321Y-26738000D01*
X38563750Y-26723714D01*
X38520892Y-26723714D01*
X38492321Y-26738000D01*
X38478035Y-26752285D01*
X38463750Y-26780857D01*
X38463750Y-26866571D01*
X38478035Y-26895142D01*
X38492321Y-26909428D01*
X38520892Y-26923714D01*
X38563750Y-26923714D01*
X38335178Y-26723714D02*
X38335178Y-26923714D01*
X38335178Y-26752285D02*
X38320892Y-26738000D01*
X38292321Y-26723714D01*
X38249464Y-26723714D01*
X38220892Y-26738000D01*
X38206607Y-26766571D01*
X38206607Y-26923714D01*
X38063750Y-26923714D02*
X38063750Y-26723714D01*
X38063750Y-26623714D02*
X38078035Y-26638000D01*
X38063750Y-26652285D01*
X38049464Y-26638000D01*
X38063750Y-26623714D01*
X38063750Y-26652285D01*
X37692321Y-26923714D02*
X37692321Y-26723714D01*
X37692321Y-26623714D02*
X37706607Y-26638000D01*
X37692321Y-26652285D01*
X37678035Y-26638000D01*
X37692321Y-26623714D01*
X37692321Y-26652285D01*
X37549464Y-26723714D02*
X37549464Y-26923714D01*
X37549464Y-26752285D02*
X37535178Y-26738000D01*
X37506607Y-26723714D01*
X37463750Y-26723714D01*
X37435178Y-26738000D01*
X37420892Y-26766571D01*
X37420892Y-26923714D01*
X37063750Y-26652285D02*
X37049464Y-26638000D01*
X37020892Y-26623714D01*
X36949464Y-26623714D01*
X36920892Y-26638000D01*
X36906607Y-26652285D01*
X36892321Y-26680857D01*
X36892321Y-26709428D01*
X36906607Y-26752285D01*
X37078035Y-26923714D01*
X36892321Y-26923714D01*
X36706607Y-26623714D02*
X36678035Y-26623714D01*
X36649464Y-26638000D01*
X36635178Y-26652285D01*
X36620892Y-26680857D01*
X36606607Y-26738000D01*
X36606607Y-26809428D01*
X36620892Y-26866571D01*
X36635178Y-26895142D01*
X36649464Y-26909428D01*
X36678035Y-26923714D01*
X36706607Y-26923714D01*
X36735178Y-26909428D01*
X36749464Y-26895142D01*
X36763750Y-26866571D01*
X36778035Y-26809428D01*
X36778035Y-26738000D01*
X36763750Y-26680857D01*
X36749464Y-26652285D01*
X36735178Y-26638000D01*
X36706607Y-26623714D01*
X36492321Y-26652285D02*
X36478035Y-26638000D01*
X36449464Y-26623714D01*
X36378035Y-26623714D01*
X36349464Y-26638000D01*
X36335178Y-26652285D01*
X36320892Y-26680857D01*
X36320892Y-26709428D01*
X36335178Y-26752285D01*
X36506607Y-26923714D01*
X36320892Y-26923714D01*
X36206607Y-26652285D02*
X36192321Y-26638000D01*
X36163750Y-26623714D01*
X36092321Y-26623714D01*
X36063750Y-26638000D01*
X36049464Y-26652285D01*
X36035178Y-26680857D01*
X36035178Y-26709428D01*
X36049464Y-26752285D01*
X36220892Y-26923714D01*
X36035178Y-26923714D01*
X35892321Y-26909428D02*
X35892321Y-26923714D01*
X35906607Y-26952285D01*
X35920892Y-26966571D01*
X35406607Y-26923714D02*
X35406607Y-26623714D01*
X35406607Y-26909428D02*
X35435178Y-26923714D01*
X35492321Y-26923714D01*
X35520892Y-26909428D01*
X35535178Y-26895142D01*
X35549464Y-26866571D01*
X35549464Y-26780857D01*
X35535178Y-26752285D01*
X35520892Y-26738000D01*
X35492321Y-26723714D01*
X35435178Y-26723714D01*
X35406607Y-26738000D01*
X35149464Y-26909428D02*
X35178035Y-26923714D01*
X35235178Y-26923714D01*
X35263750Y-26909428D01*
X35278035Y-26880857D01*
X35278035Y-26766571D01*
X35263750Y-26738000D01*
X35235178Y-26723714D01*
X35178035Y-26723714D01*
X35149464Y-26738000D01*
X35135178Y-26766571D01*
X35135178Y-26795142D01*
X35278035Y-26823714D01*
X35020892Y-26909428D02*
X34992321Y-26923714D01*
X34935178Y-26923714D01*
X34906607Y-26909428D01*
X34892321Y-26880857D01*
X34892321Y-26866571D01*
X34906607Y-26838000D01*
X34935178Y-26823714D01*
X34978035Y-26823714D01*
X35006607Y-26809428D01*
X35020892Y-26780857D01*
X35020892Y-26766571D01*
X35006607Y-26738000D01*
X34978035Y-26723714D01*
X34935178Y-26723714D01*
X34906607Y-26738000D01*
X34763750Y-26923714D02*
X34763750Y-26723714D01*
X34763750Y-26623714D02*
X34778035Y-26638000D01*
X34763750Y-26652285D01*
X34749464Y-26638000D01*
X34763750Y-26623714D01*
X34763750Y-26652285D01*
X34492321Y-26723714D02*
X34492321Y-26966571D01*
X34506607Y-26995142D01*
X34520892Y-27009428D01*
X34549464Y-27023714D01*
X34592321Y-27023714D01*
X34620892Y-27009428D01*
X34492321Y-26909428D02*
X34520892Y-26923714D01*
X34578035Y-26923714D01*
X34606607Y-26909428D01*
X34620892Y-26895142D01*
X34635178Y-26866571D01*
X34635178Y-26780857D01*
X34620892Y-26752285D01*
X34606607Y-26738000D01*
X34578035Y-26723714D01*
X34520892Y-26723714D01*
X34492321Y-26738000D01*
X34349464Y-26723714D02*
X34349464Y-26923714D01*
X34349464Y-26752285D02*
X34335178Y-26738000D01*
X34306607Y-26723714D01*
X34263750Y-26723714D01*
X34235178Y-26738000D01*
X34220892Y-26766571D01*
X34220892Y-26923714D01*
X33963750Y-26909428D02*
X33992321Y-26923714D01*
X34049464Y-26923714D01*
X34078035Y-26909428D01*
X34092321Y-26880857D01*
X34092321Y-26766571D01*
X34078035Y-26738000D01*
X34049464Y-26723714D01*
X33992321Y-26723714D01*
X33963750Y-26738000D01*
X33949464Y-26766571D01*
X33949464Y-26795142D01*
X34092321Y-26823714D01*
X33692321Y-26923714D02*
X33692321Y-26623714D01*
X33692321Y-26909428D02*
X33720892Y-26923714D01*
X33778035Y-26923714D01*
X33806607Y-26909428D01*
X33820892Y-26895142D01*
X33835178Y-26866571D01*
X33835178Y-26780857D01*
X33820892Y-26752285D01*
X33806607Y-26738000D01*
X33778035Y-26723714D01*
X33720892Y-26723714D01*
X33692321Y-26738000D01*
X33320892Y-26923714D02*
X33320892Y-26723714D01*
X33320892Y-26623714D02*
X33335178Y-26638000D01*
X33320892Y-26652285D01*
X33306607Y-26638000D01*
X33320892Y-26623714D01*
X33320892Y-26652285D01*
X33178035Y-26723714D02*
X33178035Y-26923714D01*
X33178035Y-26752285D02*
X33163750Y-26738000D01*
X33135178Y-26723714D01*
X33092321Y-26723714D01*
X33063750Y-26738000D01*
X33049464Y-26766571D01*
X33049464Y-26923714D01*
X32692321Y-26838000D02*
X32549464Y-26838000D01*
X32720892Y-26923714D02*
X32620892Y-26623714D01*
X32520892Y-26923714D01*
X32463750Y-26723714D02*
X32349464Y-26723714D01*
X32420892Y-26623714D02*
X32420892Y-26880857D01*
X32406607Y-26909428D01*
X32378035Y-26923714D01*
X32349464Y-26923714D01*
X32206607Y-26923714D02*
X32235178Y-26909428D01*
X32249464Y-26880857D01*
X32249464Y-26623714D01*
X31963750Y-26923714D02*
X31963750Y-26766571D01*
X31978035Y-26738000D01*
X32006607Y-26723714D01*
X32063750Y-26723714D01*
X32092321Y-26738000D01*
X31963750Y-26909428D02*
X31992321Y-26923714D01*
X32063750Y-26923714D01*
X32092321Y-26909428D01*
X32106607Y-26880857D01*
X32106607Y-26852285D01*
X32092321Y-26823714D01*
X32063750Y-26809428D01*
X31992321Y-26809428D01*
X31963750Y-26795142D01*
X31820892Y-26723714D02*
X31820892Y-26923714D01*
X31820892Y-26752285D02*
X31806607Y-26738000D01*
X31778035Y-26723714D01*
X31735178Y-26723714D01*
X31706607Y-26738000D01*
X31692321Y-26766571D01*
X31692321Y-26923714D01*
X31592321Y-26723714D02*
X31478035Y-26723714D01*
X31549464Y-26623714D02*
X31549464Y-26880857D01*
X31535178Y-26909428D01*
X31506607Y-26923714D01*
X31478035Y-26923714D01*
X31378035Y-26923714D02*
X31378035Y-26723714D01*
X31378035Y-26623714D02*
X31392321Y-26638000D01*
X31378035Y-26652285D01*
X31363750Y-26638000D01*
X31378035Y-26623714D01*
X31378035Y-26652285D01*
X31106607Y-26909428D02*
X31135178Y-26923714D01*
X31192321Y-26923714D01*
X31220892Y-26909428D01*
X31235178Y-26895142D01*
X31249464Y-26866571D01*
X31249464Y-26780857D01*
X31235178Y-26752285D01*
X31220892Y-26738000D01*
X31192321Y-26723714D01*
X31135178Y-26723714D01*
X31106607Y-26738000D01*
X30578035Y-26895142D02*
X30592321Y-26909428D01*
X30635178Y-26923714D01*
X30663750Y-26923714D01*
X30706607Y-26909428D01*
X30735178Y-26880857D01*
X30749464Y-26852285D01*
X30763750Y-26795142D01*
X30763750Y-26752285D01*
X30749464Y-26695142D01*
X30735178Y-26666571D01*
X30706607Y-26638000D01*
X30663750Y-26623714D01*
X30635178Y-26623714D01*
X30592321Y-26638000D01*
X30578035Y-26652285D01*
X30320892Y-26923714D02*
X30320892Y-26766571D01*
X30335178Y-26738000D01*
X30363750Y-26723714D01*
X30420892Y-26723714D01*
X30449464Y-26738000D01*
X30320892Y-26909428D02*
X30349464Y-26923714D01*
X30420892Y-26923714D01*
X30449464Y-26909428D01*
X30463750Y-26880857D01*
X30463750Y-26852285D01*
X30449464Y-26823714D01*
X30420892Y-26809428D01*
X30349464Y-26809428D01*
X30320892Y-26795142D01*
X30178035Y-26723714D02*
X30178035Y-26923714D01*
X30178035Y-26752285D02*
X30163750Y-26738000D01*
X30135178Y-26723714D01*
X30092321Y-26723714D01*
X30063750Y-26738000D01*
X30049464Y-26766571D01*
X30049464Y-26923714D01*
X29778035Y-26923714D02*
X29778035Y-26766571D01*
X29792321Y-26738000D01*
X29820892Y-26723714D01*
X29878035Y-26723714D01*
X29906607Y-26738000D01*
X29778035Y-26909428D02*
X29806607Y-26923714D01*
X29878035Y-26923714D01*
X29906607Y-26909428D01*
X29920892Y-26880857D01*
X29920892Y-26852285D01*
X29906607Y-26823714D01*
X29878035Y-26809428D01*
X29806607Y-26809428D01*
X29778035Y-26795142D01*
X29506607Y-26923714D02*
X29506607Y-26623714D01*
X29506607Y-26909428D02*
X29535178Y-26923714D01*
X29592321Y-26923714D01*
X29620892Y-26909428D01*
X29635178Y-26895142D01*
X29649464Y-26866571D01*
X29649464Y-26780857D01*
X29635178Y-26752285D01*
X29620892Y-26738000D01*
X29592321Y-26723714D01*
X29535178Y-26723714D01*
X29506607Y-26738000D01*
X29235178Y-26923714D02*
X29235178Y-26766571D01*
X29249464Y-26738000D01*
X29278035Y-26723714D01*
X29335178Y-26723714D01*
X29363750Y-26738000D01*
X29235178Y-26909428D02*
X29263750Y-26923714D01*
X29335178Y-26923714D01*
X29363750Y-26909428D01*
X29378035Y-26880857D01*
X29378035Y-26852285D01*
X29363750Y-26823714D01*
X29335178Y-26809428D01*
X29263750Y-26809428D01*
X29235178Y-26795142D01*
X29092321Y-26895142D02*
X29078035Y-26909428D01*
X29092321Y-26923714D01*
X29106607Y-26909428D01*
X29092321Y-26895142D01*
X29092321Y-26923714D01*
M02*
