%TF.GenerationSoftware,KiCad,Pcbnew,(6.0.1)*%
%TF.CreationDate,2022-02-22T12:17:33-04:00*%
%TF.ProjectId,Retro Video Amp,52657472-6f20-4566-9964-656f20416d70,rev?*%
%TF.SameCoordinates,Original*%
%TF.FileFunction,Copper,L1,Top*%
%TF.FilePolarity,Positive*%
%FSLAX46Y46*%
G04 Gerber Fmt 4.6, Leading zero omitted, Abs format (unit mm)*
G04 Created by KiCad (PCBNEW (6.0.1)) date 2022-02-22 12:17:33*
%MOMM*%
%LPD*%
G01*
G04 APERTURE LIST*
G04 Aperture macros list*
%AMRoundRect*
0 Rectangle with rounded corners*
0 $1 Rounding radius*
0 $2 $3 $4 $5 $6 $7 $8 $9 X,Y pos of 4 corners*
0 Add a 4 corners polygon primitive as box body*
4,1,4,$2,$3,$4,$5,$6,$7,$8,$9,$2,$3,0*
0 Add four circle primitives for the rounded corners*
1,1,$1+$1,$2,$3*
1,1,$1+$1,$4,$5*
1,1,$1+$1,$6,$7*
1,1,$1+$1,$8,$9*
0 Add four rect primitives between the rounded corners*
20,1,$1+$1,$2,$3,$4,$5,0*
20,1,$1+$1,$4,$5,$6,$7,0*
20,1,$1+$1,$6,$7,$8,$9,0*
20,1,$1+$1,$8,$9,$2,$3,0*%
%AMFreePoly0*
4,1,22,0.550000,-0.750000,0.000000,-0.750000,0.000000,-0.745033,-0.079941,-0.743568,-0.215256,-0.701293,-0.333266,-0.622738,-0.424486,-0.514219,-0.481581,-0.384460,-0.499164,-0.250000,-0.500000,-0.250000,-0.500000,0.250000,-0.499164,0.250000,-0.499963,0.256109,-0.478152,0.396186,-0.417904,0.524511,-0.324060,0.630769,-0.204165,0.706417,-0.067858,0.745374,0.000000,0.744959,0.000000,0.750000,
0.550000,0.750000,0.550000,-0.750000,0.550000,-0.750000,$1*%
%AMFreePoly1*
4,1,20,0.000000,0.744959,0.073905,0.744508,0.209726,0.703889,0.328688,0.626782,0.421226,0.519385,0.479903,0.390333,0.500000,0.250000,0.500000,-0.250000,0.499851,-0.262216,0.476331,-0.402017,0.414519,-0.529596,0.319384,-0.634700,0.198574,-0.708877,0.061801,-0.746166,0.000000,-0.745033,0.000000,-0.750000,-0.550000,-0.750000,-0.550000,0.750000,0.000000,0.750000,0.000000,0.744959,
0.000000,0.744959,$1*%
G04 Aperture macros list end*
%TA.AperFunction,SMDPad,CuDef*%
%ADD10RoundRect,0.250000X-0.250000X-0.475000X0.250000X-0.475000X0.250000X0.475000X-0.250000X0.475000X0*%
%TD*%
%TA.AperFunction,SMDPad,CuDef*%
%ADD11RoundRect,0.250000X0.262500X0.450000X-0.262500X0.450000X-0.262500X-0.450000X0.262500X-0.450000X0*%
%TD*%
%TA.AperFunction,SMDPad,CuDef*%
%ADD12FreePoly0,180.000000*%
%TD*%
%TA.AperFunction,SMDPad,CuDef*%
%ADD13R,1.000000X1.500000*%
%TD*%
%TA.AperFunction,SMDPad,CuDef*%
%ADD14FreePoly1,180.000000*%
%TD*%
%TA.AperFunction,ComponentPad*%
%ADD15R,1.000000X1.000000*%
%TD*%
%TA.AperFunction,SMDPad,CuDef*%
%ADD16RoundRect,0.250000X-1.050000X-0.550000X1.050000X-0.550000X1.050000X0.550000X-1.050000X0.550000X0*%
%TD*%
%TA.AperFunction,SMDPad,CuDef*%
%ADD17R,1.981200X0.508000*%
%TD*%
%TA.AperFunction,SMDPad,CuDef*%
%ADD18RoundRect,0.250000X-0.262500X-0.450000X0.262500X-0.450000X0.262500X0.450000X-0.262500X0.450000X0*%
%TD*%
%TA.AperFunction,ViaPad*%
%ADD19C,0.800000*%
%TD*%
%TA.AperFunction,Conductor*%
%ADD20C,0.450000*%
%TD*%
%TA.AperFunction,Conductor*%
%ADD21C,0.250000*%
%TD*%
G04 APERTURE END LIST*
D10*
%TO.P,C2,1*%
%TO.N,VCC*%
X35060000Y-16920000D03*
%TO.P,C2,2*%
%TO.N,GND*%
X36960000Y-16920000D03*
%TD*%
D11*
%TO.P,R5,1*%
%TO.N,Net-(R2-Pad2)*%
X41095300Y-24765000D03*
%TO.P,R5,2*%
%TO.N,GND*%
X39270300Y-24765000D03*
%TD*%
D12*
%TO.P,JP1,1,A*%
%TO.N,VCC*%
X32592800Y-29845000D03*
D13*
%TO.P,JP1,2,C*%
%TO.N,Net-(U1-Pad2)*%
X31292800Y-29845000D03*
D14*
%TO.P,JP1,3,B*%
%TO.N,GND*%
X29992800Y-29845000D03*
%TD*%
D15*
%TO.P,,1*%
%TO.N,GND*%
X24045000Y-19630000D03*
%TD*%
%TO.P,,1*%
%TO.N,Net-(R1-Pad2)*%
X43920000Y-17090000D03*
%TD*%
%TO.P,,1*%
%TO.N,unconnected-(C3-Pad1)*%
X24045000Y-24300000D03*
%TD*%
D11*
%TO.P,R3,1*%
%TO.N,Net-(R3-Pad1)*%
X41095300Y-27305000D03*
%TO.P,R3,2*%
%TO.N,Net-(U1-Pad5)*%
X39270300Y-27305000D03*
%TD*%
D10*
%TO.P,C4,1*%
%TO.N,unconnected-(C4-Pad1)*%
X25262800Y-27305000D03*
%TO.P,C4,2*%
%TO.N,Net-(C4-Pad2)*%
X27162800Y-27305000D03*
%TD*%
D15*
%TO.P,,1*%
%TO.N,GND*%
X43920000Y-29790000D03*
%TD*%
D16*
%TO.P,C1,1*%
%TO.N,VCC*%
X29492800Y-19050000D03*
%TO.P,C1,2*%
%TO.N,GND*%
X33092800Y-19050000D03*
%TD*%
D17*
%TO.P,U1,1,YIN*%
%TO.N,Net-(U1-Pad1)*%
X30099000Y-22860000D03*
%TO.P,U1,2,ASEL*%
%TO.N,Net-(U1-Pad2)*%
X30099000Y-24130000D03*
%TO.P,U1,3,GND*%
%TO.N,GND*%
X30099000Y-25400000D03*
%TO.P,U1,4,CIN*%
%TO.N,Net-(C4-Pad2)*%
X30099000Y-26670000D03*
%TO.P,U1,5,COUT*%
%TO.N,Net-(U1-Pad5)*%
X35026600Y-26670000D03*
%TO.P,U1,6,CVOUT*%
%TO.N,Net-(U1-Pad6)*%
X35026600Y-25400000D03*
%TO.P,U1,7,VCC*%
%TO.N,VCC*%
X35026600Y-24130000D03*
%TO.P,U1,8,YOUT*%
%TO.N,Net-(U1-Pad8)*%
X35026600Y-22860000D03*
%TD*%
D18*
%TO.P,R2,1*%
%TO.N,Net-(U1-Pad6)*%
X39270300Y-22225000D03*
%TO.P,R2,2*%
%TO.N,Net-(R2-Pad2)*%
X41095300Y-22225000D03*
%TD*%
D15*
%TO.P,,1*%
%TO.N,Net-(R3-Pad1)*%
X43920000Y-27250000D03*
%TD*%
%TO.P,,1*%
%TO.N,GND*%
X43920000Y-19630000D03*
%TD*%
%TO.P,,1*%
%TO.N,VCC*%
X24045000Y-17090000D03*
%TD*%
D18*
%TO.P,R1,1*%
%TO.N,Net-(U1-Pad8)*%
X39270300Y-17145000D03*
%TO.P,R1,2*%
%TO.N,Net-(R1-Pad2)*%
X41095300Y-17145000D03*
%TD*%
D10*
%TO.P,C3,1*%
%TO.N,unconnected-(C3-Pad1)*%
X25262800Y-22225000D03*
%TO.P,C3,2*%
%TO.N,Net-(U1-Pad1)*%
X27162800Y-22225000D03*
%TD*%
D11*
%TO.P,R4,1*%
%TO.N,Net-(R1-Pad2)*%
X41095300Y-19685000D03*
%TO.P,R4,2*%
%TO.N,GND*%
X39270300Y-19685000D03*
%TD*%
D15*
%TO.P,,1*%
%TO.N,GND*%
X43920000Y-24710000D03*
%TD*%
D11*
%TO.P,R6,1*%
%TO.N,Net-(R3-Pad1)*%
X41095300Y-29845000D03*
%TO.P,R6,2*%
%TO.N,GND*%
X39270300Y-29845000D03*
%TD*%
D15*
%TO.P,,1*%
%TO.N,unconnected-(C4-Pad1)*%
X24045000Y-29210000D03*
%TD*%
%TO.P,,1*%
%TO.N,Net-(R2-Pad2)*%
X43920000Y-22170000D03*
%TD*%
D19*
%TO.N,GND*%
X38100000Y-29210000D03*
X34969640Y-20279640D03*
X38100000Y-25400000D03*
X38100000Y-20320000D03*
X29210000Y-27940000D03*
X27940000Y-25400000D03*
%TD*%
D20*
%TO.N,Net-(U1-Pad8)*%
X35026600Y-21388700D02*
X35026600Y-22860000D01*
X39270300Y-17145000D02*
X35026600Y-21388700D01*
D21*
%TO.N,Net-(R1-Pad2)*%
X41095300Y-19685000D02*
X41095300Y-17145000D01*
D20*
X41095300Y-17145000D02*
X43815000Y-17145000D01*
D21*
%TO.N,Net-(U1-Pad6)*%
X36095300Y-25400000D02*
X35026600Y-25400000D01*
D20*
X39270300Y-22225000D02*
X36095300Y-25400000D01*
D21*
%TO.N,Net-(R2-Pad2)*%
X41095300Y-22225000D02*
X41095300Y-24765000D01*
D20*
X41095300Y-22225000D02*
X43815000Y-22225000D01*
D21*
%TO.N,Net-(R3-Pad1)*%
X41095300Y-29845000D02*
X41095300Y-27305000D01*
D20*
X41095300Y-27305000D02*
X43815000Y-27305000D01*
%TO.N,Net-(U1-Pad5)*%
X38635300Y-26670000D02*
X35026600Y-26670000D01*
X39270300Y-27305000D02*
X38635300Y-26670000D01*
D21*
%TO.N,GND*%
X29992800Y-28722800D02*
X29210000Y-27940000D01*
X33092800Y-19050000D02*
X33740000Y-19050000D01*
X39270300Y-19685000D02*
X38735000Y-19685000D01*
X39270300Y-29845000D02*
X38735000Y-29845000D01*
X38735000Y-24765000D02*
X38100000Y-25400000D01*
D20*
X36960000Y-17010000D02*
X36960000Y-16920000D01*
X33740000Y-19050000D02*
X34969640Y-20279640D01*
X34969640Y-19000360D02*
X36960000Y-17010000D01*
X34969640Y-20279640D02*
X34969640Y-19000360D01*
X30099000Y-25400000D02*
X27940000Y-25400000D01*
D21*
X38735000Y-19685000D02*
X38100000Y-20320000D01*
X38735000Y-29845000D02*
X38100000Y-29210000D01*
X39270300Y-24765000D02*
X38735000Y-24765000D01*
X29992800Y-29845000D02*
X29992800Y-28722800D01*
%TO.N,Net-(U1-Pad1)*%
X30099000Y-22860000D02*
X27797800Y-22860000D01*
X27797800Y-22860000D02*
X27162800Y-22225000D01*
%TO.N,Net-(U1-Pad2)*%
X31750000Y-25044400D02*
X31750000Y-27940000D01*
X30835600Y-24130000D02*
X31750000Y-25044400D01*
X31292800Y-28397200D02*
X31292800Y-29845000D01*
X31750000Y-27940000D02*
X31292800Y-28397200D01*
X30099000Y-24130000D02*
X30835600Y-24130000D01*
%TO.N,Net-(C4-Pad2)*%
X27797800Y-26670000D02*
X27162800Y-27305000D01*
X30099000Y-26670000D02*
X27797800Y-26670000D01*
D20*
%TO.N,VCC*%
X27220000Y-19035000D02*
X25315000Y-17130000D01*
D21*
X32592800Y-25827200D02*
X32592800Y-29845000D01*
X34290000Y-24130000D02*
X32592800Y-25827200D01*
X31397800Y-16510000D02*
X34610000Y-16510000D01*
X34290000Y-24130000D02*
X35026600Y-24130000D01*
D20*
X29492800Y-19332800D02*
X34290000Y-24130000D01*
X29492800Y-18415000D02*
X29492800Y-19332800D01*
X29407800Y-19035000D02*
X27220000Y-19035000D01*
X25315000Y-17130000D02*
X24045000Y-17130000D01*
D21*
X29492800Y-18415000D02*
X31397800Y-16510000D01*
%TO.N,unconnected-(C3-Pad1)*%
X25262800Y-22997200D02*
X24130000Y-24130000D01*
X25262800Y-22225000D02*
X25262800Y-22997200D01*
%TO.N,unconnected-(C4-Pad1)*%
X25262800Y-27305000D02*
X25262800Y-28077200D01*
X25262800Y-28077200D02*
X24130000Y-29210000D01*
%TD*%
M02*
