%TF.GenerationSoftware,KiCad,Pcbnew,(6.0.1)*%
%TF.CreationDate,2022-02-22T12:17:33-04:00*%
%TF.ProjectId,Retro Video Amp,52657472-6f20-4566-9964-656f20416d70,rev?*%
%TF.SameCoordinates,Original*%
%TF.FileFunction,Soldermask,Top*%
%TF.FilePolarity,Negative*%
%FSLAX46Y46*%
G04 Gerber Fmt 4.6, Leading zero omitted, Abs format (unit mm)*
G04 Created by KiCad (PCBNEW (6.0.1)) date 2022-02-22 12:17:33*
%MOMM*%
%LPD*%
G01*
G04 APERTURE LIST*
G04 Aperture macros list*
%AMRoundRect*
0 Rectangle with rounded corners*
0 $1 Rounding radius*
0 $2 $3 $4 $5 $6 $7 $8 $9 X,Y pos of 4 corners*
0 Add a 4 corners polygon primitive as box body*
4,1,4,$2,$3,$4,$5,$6,$7,$8,$9,$2,$3,0*
0 Add four circle primitives for the rounded corners*
1,1,$1+$1,$2,$3*
1,1,$1+$1,$4,$5*
1,1,$1+$1,$6,$7*
1,1,$1+$1,$8,$9*
0 Add four rect primitives between the rounded corners*
20,1,$1+$1,$2,$3,$4,$5,0*
20,1,$1+$1,$4,$5,$6,$7,0*
20,1,$1+$1,$6,$7,$8,$9,0*
20,1,$1+$1,$8,$9,$2,$3,0*%
%AMFreePoly0*
4,1,22,0.550000,-0.750000,0.000000,-0.750000,0.000000,-0.745033,-0.079941,-0.743568,-0.215256,-0.701293,-0.333266,-0.622738,-0.424486,-0.514219,-0.481581,-0.384460,-0.499164,-0.250000,-0.500000,-0.250000,-0.500000,0.250000,-0.499164,0.250000,-0.499963,0.256109,-0.478152,0.396186,-0.417904,0.524511,-0.324060,0.630769,-0.204165,0.706417,-0.067858,0.745374,0.000000,0.744959,0.000000,0.750000,
0.550000,0.750000,0.550000,-0.750000,0.550000,-0.750000,$1*%
%AMFreePoly1*
4,1,20,0.000000,0.744959,0.073905,0.744508,0.209726,0.703889,0.328688,0.626782,0.421226,0.519385,0.479903,0.390333,0.500000,0.250000,0.500000,-0.250000,0.499851,-0.262216,0.476331,-0.402017,0.414519,-0.529596,0.319384,-0.634700,0.198574,-0.708877,0.061801,-0.746166,0.000000,-0.745033,0.000000,-0.750000,-0.550000,-0.750000,-0.550000,0.750000,0.000000,0.750000,0.000000,0.744959,
0.000000,0.744959,$1*%
G04 Aperture macros list end*
%ADD10C,0.125000*%
%ADD11RoundRect,0.250000X-0.250000X-0.475000X0.250000X-0.475000X0.250000X0.475000X-0.250000X0.475000X0*%
%ADD12RoundRect,0.250000X0.262500X0.450000X-0.262500X0.450000X-0.262500X-0.450000X0.262500X-0.450000X0*%
%ADD13FreePoly0,180.000000*%
%ADD14R,1.000000X1.500000*%
%ADD15FreePoly1,180.000000*%
%ADD16R,1.000000X1.000000*%
%ADD17RoundRect,0.250000X-1.050000X-0.550000X1.050000X-0.550000X1.050000X0.550000X-1.050000X0.550000X0*%
%ADD18R,1.981200X0.508000*%
%ADD19RoundRect,0.250000X-0.262500X-0.450000X0.262500X-0.450000X0.262500X0.450000X-0.262500X0.450000X0*%
G04 APERTURE END LIST*
D10*
X43986011Y-23618571D02*
X43962202Y-23642380D01*
X43890773Y-23666190D01*
X43843154Y-23666190D01*
X43771726Y-23642380D01*
X43724107Y-23594761D01*
X43700297Y-23547142D01*
X43676488Y-23451904D01*
X43676488Y-23380476D01*
X43700297Y-23285238D01*
X43724107Y-23237619D01*
X43771726Y-23190000D01*
X43843154Y-23166190D01*
X43890773Y-23166190D01*
X43962202Y-23190000D01*
X43986011Y-23213809D01*
X44128869Y-23166190D02*
X44295535Y-23666190D01*
X44462202Y-23166190D01*
X44795535Y-23404285D02*
X44866964Y-23428095D01*
X44890773Y-23451904D01*
X44914583Y-23499523D01*
X44914583Y-23570952D01*
X44890773Y-23618571D01*
X44866964Y-23642380D01*
X44819345Y-23666190D01*
X44628869Y-23666190D01*
X44628869Y-23166190D01*
X44795535Y-23166190D01*
X44843154Y-23190000D01*
X44866964Y-23213809D01*
X44890773Y-23261428D01*
X44890773Y-23309047D01*
X44866964Y-23356666D01*
X44843154Y-23380476D01*
X44795535Y-23404285D01*
X44628869Y-23404285D01*
X45105059Y-23642380D02*
X45176488Y-23666190D01*
X45295535Y-23666190D01*
X45343154Y-23642380D01*
X45366964Y-23618571D01*
X45390773Y-23570952D01*
X45390773Y-23523333D01*
X45366964Y-23475714D01*
X45343154Y-23451904D01*
X45295535Y-23428095D01*
X45200297Y-23404285D01*
X45152678Y-23380476D01*
X45128869Y-23356666D01*
X45105059Y-23309047D01*
X45105059Y-23261428D01*
X45128869Y-23213809D01*
X45152678Y-23190000D01*
X45200297Y-23166190D01*
X45319345Y-23166190D01*
X45390773Y-23190000D01*
X25462202Y-19420000D02*
X25414583Y-19396190D01*
X25343154Y-19396190D01*
X25271726Y-19420000D01*
X25224107Y-19467619D01*
X25200297Y-19515238D01*
X25176488Y-19610476D01*
X25176488Y-19681904D01*
X25200297Y-19777142D01*
X25224107Y-19824761D01*
X25271726Y-19872380D01*
X25343154Y-19896190D01*
X25390773Y-19896190D01*
X25462202Y-19872380D01*
X25486011Y-19848571D01*
X25486011Y-19681904D01*
X25390773Y-19681904D01*
X25700297Y-19896190D02*
X25700297Y-19396190D01*
X25986011Y-19896190D01*
X25986011Y-19396190D01*
X26224107Y-19896190D02*
X26224107Y-19396190D01*
X26343154Y-19396190D01*
X26414583Y-19420000D01*
X26462202Y-19467619D01*
X26486011Y-19515238D01*
X26509821Y-19610476D01*
X26509821Y-19681904D01*
X26486011Y-19777142D01*
X26462202Y-19824761D01*
X26414583Y-19872380D01*
X26343154Y-19896190D01*
X26224107Y-19896190D01*
X25438392Y-24526190D02*
X25200297Y-24526190D01*
X25200297Y-24026190D01*
X25605059Y-24026190D02*
X25605059Y-24430952D01*
X25628869Y-24478571D01*
X25652678Y-24502380D01*
X25700297Y-24526190D01*
X25795535Y-24526190D01*
X25843154Y-24502380D01*
X25866964Y-24478571D01*
X25890773Y-24430952D01*
X25890773Y-24026190D01*
X26128869Y-24526190D02*
X26128869Y-24026190D01*
X26295535Y-24383333D01*
X26462202Y-24026190D01*
X26462202Y-24526190D01*
X26676488Y-24383333D02*
X26914583Y-24383333D01*
X26628869Y-24526190D02*
X26795535Y-24026190D01*
X26962202Y-24526190D01*
X43938392Y-18556190D02*
X43700297Y-18556190D01*
X43700297Y-18056190D01*
X44105059Y-18056190D02*
X44105059Y-18460952D01*
X44128869Y-18508571D01*
X44152678Y-18532380D01*
X44200297Y-18556190D01*
X44295535Y-18556190D01*
X44343154Y-18532380D01*
X44366964Y-18508571D01*
X44390773Y-18460952D01*
X44390773Y-18056190D01*
X44628869Y-18556190D02*
X44628869Y-18056190D01*
X44795535Y-18413333D01*
X44962202Y-18056190D01*
X44962202Y-18556190D01*
X45176488Y-18413333D02*
X45414583Y-18413333D01*
X45128869Y-18556190D02*
X45295535Y-18056190D01*
X45462202Y-18556190D01*
X33873809Y-29680000D02*
X33826190Y-29656190D01*
X33754761Y-29656190D01*
X33683333Y-29680000D01*
X33635714Y-29727619D01*
X33611904Y-29775238D01*
X33588095Y-29870476D01*
X33588095Y-29941904D01*
X33611904Y-30037142D01*
X33635714Y-30084761D01*
X33683333Y-30132380D01*
X33754761Y-30156190D01*
X33802380Y-30156190D01*
X33873809Y-30132380D01*
X33897619Y-30108571D01*
X33897619Y-29941904D01*
X33802380Y-29941904D01*
X34088095Y-30013333D02*
X34326190Y-30013333D01*
X34040476Y-30156190D02*
X34207142Y-29656190D01*
X34373809Y-30156190D01*
X34540476Y-30156190D02*
X34540476Y-29656190D01*
X34778571Y-30156190D02*
X34778571Y-29656190D01*
X35064285Y-30156190D01*
X35064285Y-29656190D01*
X35826190Y-30346666D02*
X35802380Y-30322857D01*
X35754761Y-30251428D01*
X35730952Y-30203809D01*
X35707142Y-30132380D01*
X35683333Y-30013333D01*
X35683333Y-29918095D01*
X35707142Y-29799047D01*
X35730952Y-29727619D01*
X35754761Y-29680000D01*
X35802380Y-29608571D01*
X35826190Y-29584761D01*
X36111904Y-29656190D02*
X36159523Y-29656190D01*
X36207142Y-29680000D01*
X36230952Y-29703809D01*
X36254761Y-29751428D01*
X36278571Y-29846666D01*
X36278571Y-29965714D01*
X36254761Y-30060952D01*
X36230952Y-30108571D01*
X36207142Y-30132380D01*
X36159523Y-30156190D01*
X36111904Y-30156190D01*
X36064285Y-30132380D01*
X36040476Y-30108571D01*
X36016666Y-30060952D01*
X35992857Y-29965714D01*
X35992857Y-29846666D01*
X36016666Y-29751428D01*
X36040476Y-29703809D01*
X36064285Y-29680000D01*
X36111904Y-29656190D01*
X36850000Y-29632380D02*
X36421428Y-30275238D01*
X37230952Y-29656190D02*
X37135714Y-29656190D01*
X37088095Y-29680000D01*
X37064285Y-29703809D01*
X37016666Y-29775238D01*
X36992857Y-29870476D01*
X36992857Y-30060952D01*
X37016666Y-30108571D01*
X37040476Y-30132380D01*
X37088095Y-30156190D01*
X37183333Y-30156190D01*
X37230952Y-30132380D01*
X37254761Y-30108571D01*
X37278571Y-30060952D01*
X37278571Y-29941904D01*
X37254761Y-29894285D01*
X37230952Y-29870476D01*
X37183333Y-29846666D01*
X37088095Y-29846666D01*
X37040476Y-29870476D01*
X37016666Y-29894285D01*
X36992857Y-29941904D01*
X37445238Y-30346666D02*
X37469047Y-30322857D01*
X37516666Y-30251428D01*
X37540476Y-30203809D01*
X37564285Y-30132380D01*
X37588095Y-30013333D01*
X37588095Y-29918095D01*
X37564285Y-29799047D01*
X37540476Y-29727619D01*
X37516666Y-29680000D01*
X37469047Y-29608571D01*
X37445238Y-29584761D01*
X25200297Y-17165714D02*
X25581250Y-17165714D01*
X25390773Y-17356190D02*
X25390773Y-16975238D01*
X26057440Y-16856190D02*
X25819345Y-16856190D01*
X25795535Y-17094285D01*
X25819345Y-17070476D01*
X25866964Y-17046666D01*
X25986011Y-17046666D01*
X26033630Y-17070476D01*
X26057440Y-17094285D01*
X26081250Y-17141904D01*
X26081250Y-17260952D01*
X26057440Y-17308571D01*
X26033630Y-17332380D01*
X25986011Y-17356190D01*
X25866964Y-17356190D01*
X25819345Y-17332380D01*
X25795535Y-17308571D01*
X26247916Y-17022857D02*
X26366964Y-17356190D01*
X26486011Y-17022857D01*
X43986011Y-28718571D02*
X43962202Y-28742380D01*
X43890773Y-28766190D01*
X43843154Y-28766190D01*
X43771726Y-28742380D01*
X43724107Y-28694761D01*
X43700297Y-28647142D01*
X43676488Y-28551904D01*
X43676488Y-28480476D01*
X43700297Y-28385238D01*
X43724107Y-28337619D01*
X43771726Y-28290000D01*
X43843154Y-28266190D01*
X43890773Y-28266190D01*
X43962202Y-28290000D01*
X43986011Y-28313809D01*
X44200297Y-28766190D02*
X44200297Y-28266190D01*
X44200297Y-28504285D02*
X44486011Y-28504285D01*
X44486011Y-28766190D02*
X44486011Y-28266190D01*
X45009821Y-28766190D02*
X44843154Y-28528095D01*
X44724107Y-28766190D02*
X44724107Y-28266190D01*
X44914583Y-28266190D01*
X44962202Y-28290000D01*
X44986011Y-28313809D01*
X45009821Y-28361428D01*
X45009821Y-28432857D01*
X44986011Y-28480476D01*
X44962202Y-28504285D01*
X44914583Y-28528095D01*
X44724107Y-28528095D01*
X45319345Y-28266190D02*
X45414583Y-28266190D01*
X45462202Y-28290000D01*
X45509821Y-28337619D01*
X45533630Y-28432857D01*
X45533630Y-28599523D01*
X45509821Y-28694761D01*
X45462202Y-28742380D01*
X45414583Y-28766190D01*
X45319345Y-28766190D01*
X45271726Y-28742380D01*
X45224107Y-28694761D01*
X45200297Y-28599523D01*
X45200297Y-28432857D01*
X45224107Y-28337619D01*
X45271726Y-28290000D01*
X45319345Y-28266190D01*
X45747916Y-28766190D02*
X45747916Y-28266190D01*
X45914583Y-28623333D01*
X46081250Y-28266190D01*
X46081250Y-28766190D01*
X46295535Y-28623333D02*
X46533630Y-28623333D01*
X46247916Y-28766190D02*
X46414583Y-28266190D01*
X46581250Y-28766190D01*
X25486011Y-29388571D02*
X25462202Y-29412380D01*
X25390773Y-29436190D01*
X25343154Y-29436190D01*
X25271726Y-29412380D01*
X25224107Y-29364761D01*
X25200297Y-29317142D01*
X25176488Y-29221904D01*
X25176488Y-29150476D01*
X25200297Y-29055238D01*
X25224107Y-29007619D01*
X25271726Y-28960000D01*
X25343154Y-28936190D01*
X25390773Y-28936190D01*
X25462202Y-28960000D01*
X25486011Y-28983809D01*
X25700297Y-29436190D02*
X25700297Y-28936190D01*
X25700297Y-29174285D02*
X25986011Y-29174285D01*
X25986011Y-29436190D02*
X25986011Y-28936190D01*
X26509821Y-29436190D02*
X26343154Y-29198095D01*
X26224107Y-29436190D02*
X26224107Y-28936190D01*
X26414583Y-28936190D01*
X26462202Y-28960000D01*
X26486011Y-28983809D01*
X26509821Y-29031428D01*
X26509821Y-29102857D01*
X26486011Y-29150476D01*
X26462202Y-29174285D01*
X26414583Y-29198095D01*
X26224107Y-29198095D01*
X26819345Y-28936190D02*
X26914583Y-28936190D01*
X26962202Y-28960000D01*
X27009821Y-29007619D01*
X27033630Y-29102857D01*
X27033630Y-29269523D01*
X27009821Y-29364761D01*
X26962202Y-29412380D01*
X26914583Y-29436190D01*
X26819345Y-29436190D01*
X26771726Y-29412380D01*
X26724107Y-29364761D01*
X26700297Y-29269523D01*
X26700297Y-29102857D01*
X26724107Y-29007619D01*
X26771726Y-28960000D01*
X26819345Y-28936190D01*
X27247916Y-29436190D02*
X27247916Y-28936190D01*
X27414583Y-29293333D01*
X27581250Y-28936190D01*
X27581250Y-29436190D01*
X27795535Y-29293333D02*
X28033630Y-29293333D01*
X27747916Y-29436190D02*
X27914583Y-28936190D01*
X28081250Y-29436190D01*
D11*
%TO.C,C2*%
X35060000Y-16920000D03*
X36960000Y-16920000D03*
%TD*%
D12*
%TO.C,R5*%
X41095300Y-24765000D03*
X39270300Y-24765000D03*
%TD*%
D13*
%TO.C,JP1*%
X32592800Y-29845000D03*
D14*
X31292800Y-29845000D03*
D15*
X29992800Y-29845000D03*
%TD*%
D16*
%TO.C,*%
X24045000Y-19630000D03*
%TD*%
%TO.C,*%
X43920000Y-17090000D03*
%TD*%
%TO.C,*%
X24045000Y-24300000D03*
%TD*%
D12*
%TO.C,R3*%
X41095300Y-27305000D03*
X39270300Y-27305000D03*
%TD*%
D11*
%TO.C,C4*%
X25262800Y-27305000D03*
X27162800Y-27305000D03*
%TD*%
D16*
%TO.C,*%
X43920000Y-29790000D03*
%TD*%
D17*
%TO.C,C1*%
X29492800Y-19050000D03*
X33092800Y-19050000D03*
%TD*%
D18*
%TO.C,U1*%
X30099000Y-22860000D03*
X30099000Y-24130000D03*
X30099000Y-25400000D03*
X30099000Y-26670000D03*
X35026600Y-26670000D03*
X35026600Y-25400000D03*
X35026600Y-24130000D03*
X35026600Y-22860000D03*
%TD*%
D19*
%TO.C,R2*%
X39270300Y-22225000D03*
X41095300Y-22225000D03*
%TD*%
D16*
%TO.C,*%
X43920000Y-27250000D03*
%TD*%
%TO.C,*%
X43920000Y-19630000D03*
%TD*%
%TO.C,*%
X24045000Y-17090000D03*
%TD*%
D19*
%TO.C,R1*%
X39270300Y-17145000D03*
X41095300Y-17145000D03*
%TD*%
D11*
%TO.C,C3*%
X25262800Y-22225000D03*
X27162800Y-22225000D03*
%TD*%
D12*
%TO.C,R4*%
X41095300Y-19685000D03*
X39270300Y-19685000D03*
%TD*%
D16*
%TO.C,*%
X43920000Y-24710000D03*
%TD*%
D12*
%TO.C,R6*%
X41095300Y-29845000D03*
X39270300Y-29845000D03*
%TD*%
D16*
%TO.C,*%
X24045000Y-29210000D03*
%TD*%
%TO.C,*%
X43920000Y-22170000D03*
%TD*%
M02*
