%TF.GenerationSoftware,KiCad,Pcbnew,(6.0.1)*%
%TF.CreationDate,2022-02-22T12:17:33-04:00*%
%TF.ProjectId,Retro Video Amp,52657472-6f20-4566-9964-656f20416d70,rev?*%
%TF.SameCoordinates,Original*%
%TF.FileFunction,Copper,L2,Bot*%
%TF.FilePolarity,Positive*%
%FSLAX46Y46*%
G04 Gerber Fmt 4.6, Leading zero omitted, Abs format (unit mm)*
G04 Created by KiCad (PCBNEW (6.0.1)) date 2022-02-22 12:17:33*
%MOMM*%
%LPD*%
G01*
G04 APERTURE LIST*
%TA.AperFunction,ComponentPad*%
%ADD10R,1.000000X1.000000*%
%TD*%
%TA.AperFunction,ViaPad*%
%ADD11C,0.800000*%
%TD*%
G04 APERTURE END LIST*
D10*
%TO.P,,1*%
%TO.N,GND*%
X24045000Y-19630000D03*
%TD*%
%TO.P,,1*%
%TO.N,Net-(R1-Pad2)*%
X43920000Y-17090000D03*
%TD*%
%TO.P,,1*%
%TO.N,unconnected-(C3-Pad1)*%
X24045000Y-24300000D03*
%TD*%
%TO.P,,1*%
%TO.N,GND*%
X43920000Y-29790000D03*
%TD*%
%TO.P,,1*%
%TO.N,Net-(R3-Pad1)*%
X43920000Y-27250000D03*
%TD*%
%TO.P,,1*%
%TO.N,GND*%
X43920000Y-19630000D03*
%TD*%
%TO.P,,1*%
%TO.N,VCC*%
X24045000Y-17090000D03*
%TD*%
%TO.P,,1*%
%TO.N,GND*%
X43920000Y-24710000D03*
%TD*%
%TO.P,,1*%
%TO.N,unconnected-(C4-Pad1)*%
X24045000Y-29210000D03*
%TD*%
%TO.P,,1*%
%TO.N,Net-(R2-Pad2)*%
X43920000Y-22170000D03*
%TD*%
D11*
%TO.N,GND*%
X38100000Y-29210000D03*
X34969640Y-20279640D03*
X38100000Y-25400000D03*
X38100000Y-20320000D03*
X29210000Y-27940000D03*
X27940000Y-25400000D03*
%TD*%
%TA.AperFunction,Conductor*%
%TO.N,GND*%
G36*
X46586153Y-15527233D02*
G01*
X46654249Y-15547318D01*
X46700677Y-15601030D01*
X46712000Y-15653233D01*
X46712000Y-31106766D01*
X46691998Y-31174887D01*
X46638342Y-31221380D01*
X46586153Y-31232766D01*
X23084153Y-31261232D01*
X23016008Y-31241312D01*
X22969450Y-31187713D01*
X22958000Y-31135232D01*
X22958000Y-30334669D01*
X42912001Y-30334669D01*
X42912371Y-30341490D01*
X42917895Y-30392352D01*
X42921521Y-30407604D01*
X42966676Y-30528054D01*
X42975214Y-30543649D01*
X43051715Y-30645724D01*
X43064276Y-30658285D01*
X43166351Y-30734786D01*
X43181946Y-30743324D01*
X43302394Y-30788478D01*
X43317649Y-30792105D01*
X43368514Y-30797631D01*
X43375328Y-30798000D01*
X43647885Y-30798000D01*
X43663124Y-30793525D01*
X43664329Y-30792135D01*
X43666000Y-30784452D01*
X43666000Y-30779884D01*
X44174000Y-30779884D01*
X44178475Y-30795123D01*
X44179865Y-30796328D01*
X44187548Y-30797999D01*
X44464669Y-30797999D01*
X44471490Y-30797629D01*
X44522352Y-30792105D01*
X44537604Y-30788479D01*
X44658054Y-30743324D01*
X44673649Y-30734786D01*
X44775724Y-30658285D01*
X44788285Y-30645724D01*
X44864786Y-30543649D01*
X44873324Y-30528054D01*
X44918478Y-30407606D01*
X44922105Y-30392351D01*
X44927631Y-30341486D01*
X44928000Y-30334672D01*
X44928000Y-30062115D01*
X44923525Y-30046876D01*
X44922135Y-30045671D01*
X44914452Y-30044000D01*
X44192115Y-30044000D01*
X44176876Y-30048475D01*
X44175671Y-30049865D01*
X44174000Y-30057548D01*
X44174000Y-30779884D01*
X43666000Y-30779884D01*
X43666000Y-30062115D01*
X43661525Y-30046876D01*
X43660135Y-30045671D01*
X43652452Y-30044000D01*
X42930116Y-30044000D01*
X42914877Y-30048475D01*
X42913672Y-30049865D01*
X42912001Y-30057548D01*
X42912001Y-30334669D01*
X22958000Y-30334669D01*
X22958000Y-30151913D01*
X22978002Y-30083792D01*
X23031658Y-30037299D01*
X23101932Y-30027195D01*
X23166512Y-30056689D01*
X23173095Y-30062818D01*
X23176358Y-30066081D01*
X23181739Y-30073261D01*
X23298295Y-30160615D01*
X23434684Y-30211745D01*
X23496866Y-30218500D01*
X24593134Y-30218500D01*
X24655316Y-30211745D01*
X24791705Y-30160615D01*
X24908261Y-30073261D01*
X24995615Y-29956705D01*
X25046745Y-29820316D01*
X25053500Y-29758134D01*
X25053500Y-29517885D01*
X42912000Y-29517885D01*
X42916475Y-29533124D01*
X42917865Y-29534329D01*
X42925548Y-29536000D01*
X43647885Y-29536000D01*
X43663124Y-29531525D01*
X43664329Y-29530135D01*
X43666000Y-29522452D01*
X43666000Y-29517885D01*
X44174000Y-29517885D01*
X44178475Y-29533124D01*
X44179865Y-29534329D01*
X44187548Y-29536000D01*
X44909884Y-29536000D01*
X44925123Y-29531525D01*
X44926328Y-29530135D01*
X44927999Y-29522452D01*
X44927999Y-29245331D01*
X44927629Y-29238510D01*
X44922105Y-29187648D01*
X44918479Y-29172396D01*
X44873324Y-29051946D01*
X44864786Y-29036351D01*
X44788285Y-28934276D01*
X44775724Y-28921715D01*
X44673649Y-28845214D01*
X44658054Y-28836676D01*
X44537606Y-28791522D01*
X44522351Y-28787895D01*
X44471486Y-28782369D01*
X44464672Y-28782000D01*
X44192115Y-28782000D01*
X44176876Y-28786475D01*
X44175671Y-28787865D01*
X44174000Y-28795548D01*
X44174000Y-29517885D01*
X43666000Y-29517885D01*
X43666000Y-28800116D01*
X43661525Y-28784877D01*
X43660135Y-28783672D01*
X43652452Y-28782001D01*
X43375331Y-28782001D01*
X43368510Y-28782371D01*
X43317648Y-28787895D01*
X43302396Y-28791521D01*
X43181946Y-28836676D01*
X43166351Y-28845214D01*
X43064276Y-28921715D01*
X43051715Y-28934276D01*
X42975214Y-29036351D01*
X42966676Y-29051946D01*
X42921522Y-29172394D01*
X42917895Y-29187649D01*
X42912369Y-29238514D01*
X42912000Y-29245328D01*
X42912000Y-29517885D01*
X25053500Y-29517885D01*
X25053500Y-28661866D01*
X25046745Y-28599684D01*
X24995615Y-28463295D01*
X24908261Y-28346739D01*
X24791705Y-28259385D01*
X24655316Y-28208255D01*
X24593134Y-28201500D01*
X23496866Y-28201500D01*
X23434684Y-28208255D01*
X23298295Y-28259385D01*
X23181739Y-28346739D01*
X23176358Y-28353919D01*
X23173095Y-28357182D01*
X23110783Y-28391208D01*
X23039968Y-28386143D01*
X22983132Y-28343596D01*
X22958321Y-28277076D01*
X22958000Y-28268087D01*
X22958000Y-27798134D01*
X42911500Y-27798134D01*
X42918255Y-27860316D01*
X42969385Y-27996705D01*
X43056739Y-28113261D01*
X43173295Y-28200615D01*
X43309684Y-28251745D01*
X43371866Y-28258500D01*
X44468134Y-28258500D01*
X44530316Y-28251745D01*
X44666705Y-28200615D01*
X44783261Y-28113261D01*
X44870615Y-27996705D01*
X44921745Y-27860316D01*
X44928500Y-27798134D01*
X44928500Y-26701866D01*
X44921745Y-26639684D01*
X44870615Y-26503295D01*
X44783261Y-26386739D01*
X44666705Y-26299385D01*
X44530316Y-26248255D01*
X44468134Y-26241500D01*
X43371866Y-26241500D01*
X43309684Y-26248255D01*
X43173295Y-26299385D01*
X43056739Y-26386739D01*
X42969385Y-26503295D01*
X42918255Y-26639684D01*
X42911500Y-26701866D01*
X42911500Y-27798134D01*
X22958000Y-27798134D01*
X22958000Y-25241913D01*
X22978002Y-25173792D01*
X23031658Y-25127299D01*
X23101932Y-25117195D01*
X23166512Y-25146689D01*
X23173095Y-25152818D01*
X23176358Y-25156081D01*
X23181739Y-25163261D01*
X23298295Y-25250615D01*
X23434684Y-25301745D01*
X23496866Y-25308500D01*
X24593134Y-25308500D01*
X24655316Y-25301745D01*
X24780891Y-25254669D01*
X42912001Y-25254669D01*
X42912371Y-25261490D01*
X42917895Y-25312352D01*
X42921521Y-25327604D01*
X42966676Y-25448054D01*
X42975214Y-25463649D01*
X43051715Y-25565724D01*
X43064276Y-25578285D01*
X43166351Y-25654786D01*
X43181946Y-25663324D01*
X43302394Y-25708478D01*
X43317649Y-25712105D01*
X43368514Y-25717631D01*
X43375328Y-25718000D01*
X43647885Y-25718000D01*
X43663124Y-25713525D01*
X43664329Y-25712135D01*
X43666000Y-25704452D01*
X43666000Y-25699884D01*
X44174000Y-25699884D01*
X44178475Y-25715123D01*
X44179865Y-25716328D01*
X44187548Y-25717999D01*
X44464669Y-25717999D01*
X44471490Y-25717629D01*
X44522352Y-25712105D01*
X44537604Y-25708479D01*
X44658054Y-25663324D01*
X44673649Y-25654786D01*
X44775724Y-25578285D01*
X44788285Y-25565724D01*
X44864786Y-25463649D01*
X44873324Y-25448054D01*
X44918478Y-25327606D01*
X44922105Y-25312351D01*
X44927631Y-25261486D01*
X44928000Y-25254672D01*
X44928000Y-24982115D01*
X44923525Y-24966876D01*
X44922135Y-24965671D01*
X44914452Y-24964000D01*
X44192115Y-24964000D01*
X44176876Y-24968475D01*
X44175671Y-24969865D01*
X44174000Y-24977548D01*
X44174000Y-25699884D01*
X43666000Y-25699884D01*
X43666000Y-24982115D01*
X43661525Y-24966876D01*
X43660135Y-24965671D01*
X43652452Y-24964000D01*
X42930116Y-24964000D01*
X42914877Y-24968475D01*
X42913672Y-24969865D01*
X42912001Y-24977548D01*
X42912001Y-25254669D01*
X24780891Y-25254669D01*
X24791705Y-25250615D01*
X24908261Y-25163261D01*
X24995615Y-25046705D01*
X25046745Y-24910316D01*
X25053500Y-24848134D01*
X25053500Y-24437885D01*
X42912000Y-24437885D01*
X42916475Y-24453124D01*
X42917865Y-24454329D01*
X42925548Y-24456000D01*
X43647885Y-24456000D01*
X43663124Y-24451525D01*
X43664329Y-24450135D01*
X43666000Y-24442452D01*
X43666000Y-24437885D01*
X44174000Y-24437885D01*
X44178475Y-24453124D01*
X44179865Y-24454329D01*
X44187548Y-24456000D01*
X44909884Y-24456000D01*
X44925123Y-24451525D01*
X44926328Y-24450135D01*
X44927999Y-24442452D01*
X44927999Y-24165331D01*
X44927629Y-24158510D01*
X44922105Y-24107648D01*
X44918479Y-24092396D01*
X44873324Y-23971946D01*
X44864786Y-23956351D01*
X44788285Y-23854276D01*
X44775724Y-23841715D01*
X44673649Y-23765214D01*
X44658054Y-23756676D01*
X44537606Y-23711522D01*
X44522351Y-23707895D01*
X44471486Y-23702369D01*
X44464672Y-23702000D01*
X44192115Y-23702000D01*
X44176876Y-23706475D01*
X44175671Y-23707865D01*
X44174000Y-23715548D01*
X44174000Y-24437885D01*
X43666000Y-24437885D01*
X43666000Y-23720116D01*
X43661525Y-23704877D01*
X43660135Y-23703672D01*
X43652452Y-23702001D01*
X43375331Y-23702001D01*
X43368510Y-23702371D01*
X43317648Y-23707895D01*
X43302396Y-23711521D01*
X43181946Y-23756676D01*
X43166351Y-23765214D01*
X43064276Y-23841715D01*
X43051715Y-23854276D01*
X42975214Y-23956351D01*
X42966676Y-23971946D01*
X42921522Y-24092394D01*
X42917895Y-24107649D01*
X42912369Y-24158514D01*
X42912000Y-24165328D01*
X42912000Y-24437885D01*
X25053500Y-24437885D01*
X25053500Y-23751866D01*
X25046745Y-23689684D01*
X24995615Y-23553295D01*
X24908261Y-23436739D01*
X24791705Y-23349385D01*
X24655316Y-23298255D01*
X24593134Y-23291500D01*
X23496866Y-23291500D01*
X23434684Y-23298255D01*
X23298295Y-23349385D01*
X23181739Y-23436739D01*
X23176358Y-23443919D01*
X23173095Y-23447182D01*
X23110783Y-23481208D01*
X23039968Y-23476143D01*
X22983132Y-23433596D01*
X22958321Y-23367076D01*
X22958000Y-23358087D01*
X22958000Y-22718134D01*
X42911500Y-22718134D01*
X42918255Y-22780316D01*
X42969385Y-22916705D01*
X43056739Y-23033261D01*
X43173295Y-23120615D01*
X43309684Y-23171745D01*
X43371866Y-23178500D01*
X44468134Y-23178500D01*
X44530316Y-23171745D01*
X44666705Y-23120615D01*
X44783261Y-23033261D01*
X44870615Y-22916705D01*
X44921745Y-22780316D01*
X44928500Y-22718134D01*
X44928500Y-21621866D01*
X44921745Y-21559684D01*
X44870615Y-21423295D01*
X44783261Y-21306739D01*
X44666705Y-21219385D01*
X44530316Y-21168255D01*
X44468134Y-21161500D01*
X43371866Y-21161500D01*
X43309684Y-21168255D01*
X43173295Y-21219385D01*
X43056739Y-21306739D01*
X42969385Y-21423295D01*
X42918255Y-21559684D01*
X42911500Y-21621866D01*
X42911500Y-22718134D01*
X22958000Y-22718134D01*
X22958000Y-20571199D01*
X22978002Y-20503078D01*
X23031658Y-20456585D01*
X23101932Y-20446481D01*
X23166512Y-20475975D01*
X23173095Y-20482104D01*
X23189276Y-20498285D01*
X23291351Y-20574786D01*
X23306946Y-20583324D01*
X23427394Y-20628478D01*
X23442649Y-20632105D01*
X23493514Y-20637631D01*
X23500328Y-20638000D01*
X23772885Y-20638000D01*
X23788124Y-20633525D01*
X23789329Y-20632135D01*
X23791000Y-20624452D01*
X23791000Y-20619884D01*
X24299000Y-20619884D01*
X24303475Y-20635123D01*
X24304865Y-20636328D01*
X24312548Y-20637999D01*
X24589669Y-20637999D01*
X24596490Y-20637629D01*
X24647352Y-20632105D01*
X24662604Y-20628479D01*
X24783054Y-20583324D01*
X24798649Y-20574786D01*
X24900724Y-20498285D01*
X24913285Y-20485724D01*
X24989786Y-20383649D01*
X24998324Y-20368054D01*
X25043478Y-20247606D01*
X25047105Y-20232351D01*
X25052631Y-20181486D01*
X25053000Y-20174672D01*
X25053000Y-20174669D01*
X42912001Y-20174669D01*
X42912371Y-20181490D01*
X42917895Y-20232352D01*
X42921521Y-20247604D01*
X42966676Y-20368054D01*
X42975214Y-20383649D01*
X43051715Y-20485724D01*
X43064276Y-20498285D01*
X43166351Y-20574786D01*
X43181946Y-20583324D01*
X43302394Y-20628478D01*
X43317649Y-20632105D01*
X43368514Y-20637631D01*
X43375328Y-20638000D01*
X43647885Y-20638000D01*
X43663124Y-20633525D01*
X43664329Y-20632135D01*
X43666000Y-20624452D01*
X43666000Y-20619884D01*
X44174000Y-20619884D01*
X44178475Y-20635123D01*
X44179865Y-20636328D01*
X44187548Y-20637999D01*
X44464669Y-20637999D01*
X44471490Y-20637629D01*
X44522352Y-20632105D01*
X44537604Y-20628479D01*
X44658054Y-20583324D01*
X44673649Y-20574786D01*
X44775724Y-20498285D01*
X44788285Y-20485724D01*
X44864786Y-20383649D01*
X44873324Y-20368054D01*
X44918478Y-20247606D01*
X44922105Y-20232351D01*
X44927631Y-20181486D01*
X44928000Y-20174672D01*
X44928000Y-19902115D01*
X44923525Y-19886876D01*
X44922135Y-19885671D01*
X44914452Y-19884000D01*
X44192115Y-19884000D01*
X44176876Y-19888475D01*
X44175671Y-19889865D01*
X44174000Y-19897548D01*
X44174000Y-20619884D01*
X43666000Y-20619884D01*
X43666000Y-19902115D01*
X43661525Y-19886876D01*
X43660135Y-19885671D01*
X43652452Y-19884000D01*
X42930116Y-19884000D01*
X42914877Y-19888475D01*
X42913672Y-19889865D01*
X42912001Y-19897548D01*
X42912001Y-20174669D01*
X25053000Y-20174669D01*
X25053000Y-19902115D01*
X25048525Y-19886876D01*
X25047135Y-19885671D01*
X25039452Y-19884000D01*
X24317115Y-19884000D01*
X24301876Y-19888475D01*
X24300671Y-19889865D01*
X24299000Y-19897548D01*
X24299000Y-20619884D01*
X23791000Y-20619884D01*
X23791000Y-19357885D01*
X24299000Y-19357885D01*
X24303475Y-19373124D01*
X24304865Y-19374329D01*
X24312548Y-19376000D01*
X25034884Y-19376000D01*
X25050123Y-19371525D01*
X25051328Y-19370135D01*
X25052999Y-19362452D01*
X25052999Y-19357885D01*
X42912000Y-19357885D01*
X42916475Y-19373124D01*
X42917865Y-19374329D01*
X42925548Y-19376000D01*
X43647885Y-19376000D01*
X43663124Y-19371525D01*
X43664329Y-19370135D01*
X43666000Y-19362452D01*
X43666000Y-19357885D01*
X44174000Y-19357885D01*
X44178475Y-19373124D01*
X44179865Y-19374329D01*
X44187548Y-19376000D01*
X44909884Y-19376000D01*
X44925123Y-19371525D01*
X44926328Y-19370135D01*
X44927999Y-19362452D01*
X44927999Y-19085331D01*
X44927629Y-19078510D01*
X44922105Y-19027648D01*
X44918479Y-19012396D01*
X44873324Y-18891946D01*
X44864786Y-18876351D01*
X44788285Y-18774276D01*
X44775724Y-18761715D01*
X44673649Y-18685214D01*
X44658054Y-18676676D01*
X44537606Y-18631522D01*
X44522351Y-18627895D01*
X44471486Y-18622369D01*
X44464672Y-18622000D01*
X44192115Y-18622000D01*
X44176876Y-18626475D01*
X44175671Y-18627865D01*
X44174000Y-18635548D01*
X44174000Y-19357885D01*
X43666000Y-19357885D01*
X43666000Y-18640116D01*
X43661525Y-18624877D01*
X43660135Y-18623672D01*
X43652452Y-18622001D01*
X43375331Y-18622001D01*
X43368510Y-18622371D01*
X43317648Y-18627895D01*
X43302396Y-18631521D01*
X43181946Y-18676676D01*
X43166351Y-18685214D01*
X43064276Y-18761715D01*
X43051715Y-18774276D01*
X42975214Y-18876351D01*
X42966676Y-18891946D01*
X42921522Y-19012394D01*
X42917895Y-19027649D01*
X42912369Y-19078514D01*
X42912000Y-19085328D01*
X42912000Y-19357885D01*
X25052999Y-19357885D01*
X25052999Y-19085331D01*
X25052629Y-19078510D01*
X25047105Y-19027648D01*
X25043479Y-19012396D01*
X24998324Y-18891946D01*
X24989786Y-18876351D01*
X24913285Y-18774276D01*
X24900724Y-18761715D01*
X24798649Y-18685214D01*
X24783054Y-18676676D01*
X24662606Y-18631522D01*
X24647351Y-18627895D01*
X24596486Y-18622369D01*
X24589672Y-18622000D01*
X24317115Y-18622000D01*
X24301876Y-18626475D01*
X24300671Y-18627865D01*
X24299000Y-18635548D01*
X24299000Y-19357885D01*
X23791000Y-19357885D01*
X23791000Y-18640116D01*
X23786525Y-18624877D01*
X23785135Y-18623672D01*
X23777452Y-18622001D01*
X23500331Y-18622001D01*
X23493510Y-18622371D01*
X23442648Y-18627895D01*
X23427396Y-18631521D01*
X23306946Y-18676676D01*
X23291351Y-18685214D01*
X23189276Y-18761715D01*
X23173095Y-18777896D01*
X23110783Y-18811922D01*
X23039968Y-18806857D01*
X22983132Y-18764310D01*
X22958321Y-18697790D01*
X22958000Y-18688801D01*
X22958000Y-18031913D01*
X22978002Y-17963792D01*
X23031658Y-17917299D01*
X23101932Y-17907195D01*
X23166512Y-17936689D01*
X23173095Y-17942818D01*
X23176358Y-17946081D01*
X23181739Y-17953261D01*
X23298295Y-18040615D01*
X23434684Y-18091745D01*
X23496866Y-18098500D01*
X24593134Y-18098500D01*
X24655316Y-18091745D01*
X24791705Y-18040615D01*
X24908261Y-17953261D01*
X24995615Y-17836705D01*
X25046745Y-17700316D01*
X25053500Y-17638134D01*
X42911500Y-17638134D01*
X42918255Y-17700316D01*
X42969385Y-17836705D01*
X43056739Y-17953261D01*
X43173295Y-18040615D01*
X43309684Y-18091745D01*
X43371866Y-18098500D01*
X44468134Y-18098500D01*
X44530316Y-18091745D01*
X44666705Y-18040615D01*
X44783261Y-17953261D01*
X44870615Y-17836705D01*
X44921745Y-17700316D01*
X44928500Y-17638134D01*
X44928500Y-16541866D01*
X44921745Y-16479684D01*
X44870615Y-16343295D01*
X44783261Y-16226739D01*
X44666705Y-16139385D01*
X44530316Y-16088255D01*
X44468134Y-16081500D01*
X43371866Y-16081500D01*
X43309684Y-16088255D01*
X43173295Y-16139385D01*
X43056739Y-16226739D01*
X42969385Y-16343295D01*
X42918255Y-16479684D01*
X42911500Y-16541866D01*
X42911500Y-17638134D01*
X25053500Y-17638134D01*
X25053500Y-16541866D01*
X25046745Y-16479684D01*
X24995615Y-16343295D01*
X24908261Y-16226739D01*
X24791705Y-16139385D01*
X24655316Y-16088255D01*
X24593134Y-16081500D01*
X23496866Y-16081500D01*
X23434684Y-16088255D01*
X23298295Y-16139385D01*
X23181739Y-16226739D01*
X23176358Y-16233919D01*
X23173095Y-16237182D01*
X23110783Y-16271208D01*
X23039968Y-16266143D01*
X22983132Y-16223596D01*
X22958321Y-16157076D01*
X22958000Y-16148087D01*
X22958000Y-15624769D01*
X22978002Y-15556648D01*
X23031658Y-15510155D01*
X23084153Y-15498769D01*
X46586153Y-15527233D01*
G37*
%TD.AperFunction*%
%TD*%
M02*
